<svg width="174" height="50" viewBox="0 0 174 50" fill="none" xmlns="http://www.w3.org/2000/svg">
<g clip-path="url(#clip0_33_13)">
<path d="M50 25C50 29.9445 48.5338 34.778 45.7867 38.8893C43.0397 43.0005 39.1352 46.2048 34.5671 48.097C29.9989 49.9892 24.9723 50.4843 20.1227 49.5196C15.2732 48.555 10.8186 46.174 7.32233 42.6777C3.82602 39.1814 1.445 34.7268 0.480368 29.8773C-0.484263 25.0277 0.0108209 20.0011 1.90301 15.4329C3.7952 10.8648 6.99952 6.96029 11.1107 4.21326C15.222 1.46622 20.0555 -5.8963e-08 25 0V25H50Z" fill="#A1B748"/>
<path d="M44 25C44 20.6042 42.4758 16.3445 39.6872 12.9465C36.8986 9.54857 33.018 7.22265 28.7067 6.36508C24.3954 5.50751 19.9202 6.17135 16.0435 8.2435C12.1668 10.3156 9.12847 13.6679 7.44629 17.729C5.76411 21.7902 5.54211 26.3089 6.81813 30.5154C8.09415 34.7219 10.7892 38.3558 14.4442 40.7979C18.0991 43.2401 22.4877 44.3394 26.8623 43.9085C31.2369 43.4777 35.3268 41.5433 38.435 38.435L25 25H44Z" fill="#4F4F4F"/>
<path d="M50 25C50 29.9445 48.5338 34.778 45.7867 38.8893C43.0397 43.0005 39.1352 46.2048 34.5671 48.097C29.9989 49.9892 24.9723 50.4843 20.1227 49.5196C15.2732 48.555 10.8186 46.174 7.32233 42.6777C3.82602 39.1814 1.445 34.7268 0.480368 29.8773C-0.484263 25.0277 0.0108209 20.0011 1.90301 15.4329C3.7952 10.8648 6.99952 6.96029 11.1107 4.21326C15.222 1.46622 20.0555 -5.8963e-08 25 0V25H50Z" fill="url(#paint0_linear_33_13)"/>
<path d="M61.676 35L72.908 9.8H78.668L89.936 35H83.816L74.6 12.752H76.904L67.652 35H61.676ZM67.292 29.6L68.84 25.172H81.8L83.384 29.6H67.292ZM104.367 35.432C102.375 35.432 100.539 35.12 98.8589 34.496C97.2029 33.848 95.7509 32.936 94.5029 31.76C93.2789 30.584 92.3189 29.204 91.6229 27.62C90.9509 26.036 90.6149 24.296 90.6149 22.4C90.6149 20.504 90.9509 18.764 91.6229 17.18C92.3189 15.596 93.2909 14.216 94.5389 13.04C95.7869 11.864 97.2509 10.964 98.9309 10.34C100.611 9.692 102.459 9.368 104.475 9.368C106.707 9.368 108.711 9.74 110.487 10.484C112.287 11.228 113.799 12.308 115.023 13.724L111.279 17.18C110.367 16.22 109.371 15.512 108.291 15.056C107.211 14.576 106.035 14.336 104.763 14.336C103.539 14.336 102.423 14.528 101.415 14.912C100.407 15.296 99.5309 15.848 98.7869 16.568C98.0669 17.288 97.5029 18.14 97.0949 19.124C96.7109 20.108 96.5189 21.2 96.5189 22.4C96.5189 23.576 96.7109 24.656 97.0949 25.64C97.5029 26.624 98.0669 27.488 98.7869 28.232C99.5309 28.952 100.395 29.504 101.379 29.888C102.387 30.272 103.491 30.464 104.691 30.464C105.843 30.464 106.959 30.284 108.039 29.924C109.143 29.54 110.211 28.904 111.243 28.016L114.555 32.228C113.187 33.26 111.591 34.052 109.767 34.604C107.967 35.156 106.167 35.432 104.367 35.432ZM109.227 31.472V22.004H114.555V32.228L109.227 31.472ZM119.972 35V9.8H130.88C133.136 9.8 135.08 10.172 136.712 10.916C138.344 11.636 139.604 12.68 140.492 14.048C141.38 15.416 141.824 17.048 141.824 18.944C141.824 20.816 141.38 22.436 140.492 23.804C139.604 25.148 138.344 26.18 136.712 26.9C135.08 27.62 133.136 27.98 130.88 27.98H123.212L125.804 25.424V35H119.972ZM135.992 35L129.692 25.856H135.92L142.292 35H135.992ZM125.804 26.072L123.212 23.336H130.556C132.356 23.336 133.7 22.952 134.588 22.184C135.476 21.392 135.92 20.312 135.92 18.944C135.92 17.552 135.476 16.472 134.588 15.704C133.7 14.936 132.356 14.552 130.556 14.552H123.212L125.804 11.78V26.072ZM158.685 35.432C156.693 35.432 154.845 35.108 153.141 34.46C151.461 33.812 149.997 32.9 148.749 31.724C147.525 30.548 146.565 29.168 145.869 27.584C145.197 26 144.861 24.272 144.861 22.4C144.861 20.528 145.197 18.8 145.869 17.216C146.565 15.632 147.537 14.252 148.785 13.076C150.033 11.9 151.497 10.988 153.177 10.34C154.857 9.692 156.681 9.368 158.649 9.368C160.641 9.368 162.465 9.692 164.121 10.34C165.801 10.988 167.253 11.9 168.477 13.076C169.725 14.252 170.697 15.632 171.393 17.216C172.089 18.776 172.437 20.504 172.437 22.4C172.437 24.272 172.089 26.012 171.393 27.62C170.697 29.204 169.725 30.584 168.477 31.76C167.253 32.912 165.801 33.812 164.121 34.46C162.465 35.108 160.653 35.432 158.685 35.432ZM158.649 30.464C159.777 30.464 160.809 30.272 161.745 29.888C162.705 29.504 163.545 28.952 164.265 28.232C164.985 27.512 165.537 26.66 165.921 25.676C166.329 24.692 166.533 23.6 166.533 22.4C166.533 21.2 166.329 20.108 165.921 19.124C165.537 18.14 164.985 17.288 164.265 16.568C163.569 15.848 162.741 15.296 161.781 14.912C160.821 14.528 159.777 14.336 158.649 14.336C157.521 14.336 156.477 14.528 155.517 14.912C154.581 15.296 153.753 15.848 153.033 16.568C152.313 17.288 151.749 18.14 151.341 19.124C150.957 20.108 150.765 21.2 150.765 22.4C150.765 23.576 150.957 24.668 151.341 25.676C151.749 26.66 152.301 27.512 152.997 28.232C153.717 28.952 154.557 29.504 155.517 29.888C156.477 30.272 157.521 30.464 158.649 30.464Z" fill="#4F4F4F"/>
<path d="M65.7 47.05C65.24 47.05 64.8267 46.9467 64.46 46.74C64.0933 46.5267 63.8033 46.22 63.59 45.82C63.3767 45.42 63.27 44.9367 63.27 44.37C63.27 43.7967 63.3767 43.3133 63.59 42.92C63.81 42.52 64.1033 42.2167 64.47 42.01C64.8367 41.8033 65.2467 41.7 65.7 41.7C66.2 41.7 66.6467 41.8133 67.04 42.04C67.44 42.26 67.7533 42.57 67.98 42.97C68.2067 43.37 68.32 43.8367 68.32 44.37C68.32 44.8967 68.2067 45.3633 67.98 45.77C67.7533 46.17 67.44 46.4833 67.04 46.71C66.6467 46.9367 66.2 47.05 65.7 47.05ZM62.99 47V39.58H63.7V43.3L63.6 44.36L63.67 45.42V47H62.99ZM65.65 46.42C66.0233 46.42 66.3567 46.3367 66.65 46.17C66.9433 45.9967 67.1767 45.7567 67.35 45.45C67.5233 45.1367 67.61 44.7767 67.61 44.37C67.61 43.9567 67.5233 43.5967 67.35 43.29C67.1767 42.9833 66.9433 42.7467 66.65 42.58C66.3567 42.4067 66.0233 42.32 65.65 42.32C65.2767 42.32 64.94 42.4067 64.64 42.58C64.3467 42.7467 64.1133 42.9833 63.94 43.29C63.7733 43.5967 63.69 43.9567 63.69 44.37C63.69 44.7767 63.7733 45.1367 63.94 45.45C64.1133 45.7567 64.3467 45.9967 64.64 46.17C64.94 46.3367 65.2767 46.42 65.65 46.42ZM76.8073 47.05C76.3007 47.05 75.844 46.9367 75.4373 46.71C75.0373 46.4767 74.7207 46.16 74.4873 45.76C74.254 45.3533 74.1373 44.89 74.1373 44.37C74.1373 43.8433 74.254 43.38 74.4873 42.98C74.7207 42.58 75.0373 42.2667 75.4373 42.04C75.8373 41.8133 76.294 41.7 76.8073 41.7C77.3273 41.7 77.7873 41.8133 78.1873 42.04C78.594 42.2667 78.9107 42.58 79.1373 42.98C79.3707 43.38 79.4873 43.8433 79.4873 44.37C79.4873 44.89 79.3707 45.3533 79.1373 45.76C78.9107 46.16 78.594 46.4767 78.1873 46.71C77.7807 46.9367 77.3207 47.05 76.8073 47.05ZM76.8073 46.42C77.1873 46.42 77.524 46.3367 77.8173 46.17C78.1107 45.9967 78.3407 45.7567 78.5073 45.45C78.6807 45.1367 78.7673 44.7767 78.7673 44.37C78.7673 43.9567 78.6807 43.5967 78.5073 43.29C78.3407 42.9833 78.1107 42.7467 77.8173 42.58C77.524 42.4067 77.1907 42.32 76.8173 42.32C76.444 42.32 76.1107 42.4067 75.8173 42.58C75.524 42.7467 75.2907 42.9833 75.1173 43.29C74.944 43.5967 74.8573 43.9567 74.8573 44.37C74.8573 44.7767 74.944 45.1367 75.1173 45.45C75.2907 45.7567 75.524 45.9967 75.8173 46.17C76.1107 46.3367 76.4407 46.42 76.8073 46.42ZM87.4969 47.05C87.0035 47.05 86.6235 46.9167 86.3569 46.65C86.0902 46.3833 85.9569 46.0067 85.9569 45.52V40.59H86.6669V45.48C86.6669 45.7867 86.7435 46.0233 86.8969 46.19C87.0569 46.3567 87.2835 46.44 87.5769 46.44C87.8902 46.44 88.1502 46.35 88.3569 46.17L88.6069 46.68C88.4669 46.8067 88.2969 46.9 88.0969 46.96C87.9035 47.02 87.7035 47.05 87.4969 47.05ZM85.0169 42.34V41.75H88.2669V42.34H85.0169Z" fill="url(#paint1_linear_33_13)"/>
</g>
<defs>
<linearGradient id="paint0_linear_33_13" x1="25" y1="0" x2="25" y2="50" gradientUnits="userSpaceOnUse">
<stop stop-color="#48B760"/>
<stop offset="1" stop-color="#6BB748" stop-opacity="0.63"/>
</linearGradient>
<linearGradient id="paint1_linear_33_13" x1="62" y1="37" x2="90.257" y2="42.306" gradientUnits="userSpaceOnUse">
<stop stop-color="#48B760"/>
<stop offset="1" stop-color="#6BB748"/>
</linearGradient>
<clipPath id="clip0_33_13">
<rect width="174" height="50" fill="white"/>
</clipPath>
</defs>
</svg>
