<svg width="95" height="173" viewBox="0 0 95 173" fill="none" xmlns="http://www.w3.org/2000/svg">
<path d="M46.0751 64.6651C46.0751 64.6651 40.1982 52.1224 38.8615 49.7218L36.8495 42.1635C34.4901 43.1055 32.4114 44.1639 30.0952 45.1908L33.438 53.8548L42.7087 67.4757C42.9855 68.6503 43.0562 69.9018 43.5077 71.0272C43.859 71.9082 44.4381 72.6985 45.1879 73.2799C45.708 73.6839 46.3617 73.9993 47.0075 73.8791C47.7043 73.751 48.2343 73.1321 48.4541 72.4561C48.674 71.7781 48.6347 71.0469 48.5699 70.3394C48.4522 69.0859 48.2343 68.536 47.9045 67.318C47.667 66.4488 46.7386 65.2741 46.0751 64.6651Z" fill="#F3BC97"/>
<path d="M39.505 42.804C40.2529 45.11 33.265 47.8633 30.2088 47.0414C30.2088 47.0414 25.6666 35.494 25.8452 30.886C26.0062 26.7215 28.7719 25.5665 30.9409 26.1756C35.7068 27.5177 39.505 42.804 39.505 42.804Z" fill="#EFEFEF"/>
<path d="M29.5946 151.215C29.4238 151.639 29.3787 153.403 30.1658 153.878C31.848 154.891 32.6646 155.149 34.5568 156.326C35.8464 157.13 37.8054 158.858 39.2874 159.325C40.7811 159.796 43.1326 160.214 44.7128 160.047C46.7875 159.828 48.4599 159.235 48.5502 156.99C48.6032 155.65 47.4569 154.688 47.3293 154.603C46.2281 153.874 41.9726 153.775 39.7211 152.78C37.3382 151.725 34.9317 150.75 32.6351 149.603C31.6105 149.088 29.6436 150.929 29.5946 151.215Z" fill="#C19259"/>
<path d="M30.2108 152.534C28.9624 151.509 29.9281 149.908 30.0832 148.629C30.1735 147.878 30.0577 146.676 30.6486 146.101C31.4612 145.306 33.2925 145.856 34.2897 145.894C35.0395 145.921 36.3626 145.817 37.028 146.189C37.7444 146.589 37.8347 147.709 38.3549 148.304C39.7603 149.914 41.8351 150.571 43.6723 151.586C45.6332 152.668 48.1968 154.14 48.5325 156.605C48.6424 157.408 48.1065 158.277 47.3724 158.616C44.7637 159.824 41.1736 158.88 38.6297 157.54C36.5431 156.442 34.8982 154.579 32.7214 153.681C31.8656 153.328 30.9253 153.121 30.2108 152.534Z" fill="#33312F"/>
<path d="M9.2296 159.16C8.70747 160.143 8.63093 161.527 8.945 162.242C10.7607 166.391 13.4636 171.533 16.6022 172.55C19.3954 173.455 22.3299 172.954 23.1818 171.419C23.8001 170.303 23.2545 168.104 23.2545 168.104C22.6833 166.984 19.7487 165.723 18.3512 163.843C16.8692 161.852 14.4489 160.683 12.5724 159.118C11.7284 158.417 9.33559 158.907 9.2296 159.16Z" fill="#C19259"/>
<path d="M9.33145 161.365C8.67192 159.085 9.51006 159.022 9.6082 157.938C9.73972 156.497 9.95174 154.989 10.4837 154.518C10.7035 154.325 10.9882 154.195 11.2473 154.091C12.0736 153.754 12.9353 153.895 13.8049 154.043C15.1082 154.266 16.0995 154.698 17.1261 155.559C17.8229 156.144 17.342 156.767 17.821 158.237C18.3824 159.968 23.2503 165.591 23.4191 169.16C23.4702 170.209 22.7517 171.145 21.7428 171.419C20.5317 171.748 18.9162 171.842 17.6796 171.586C13.7558 170.774 9.57682 162.213 9.33145 161.365Z" fill="#33312F"/>
<path d="M31.2709 144.165C33.2298 144.514 35.3379 144.985 37.1909 144.542C37.2204 145.162 37.5227 147.179 36.4568 147.788C35.3399 148.426 32.5782 148.598 31.6046 147.681C30.9411 147.056 31.0157 146.306 31.1511 145.545C31.2296 145.097 31.261 144.634 31.2709 144.165Z" fill="#FCBE9F"/>
<path d="M10.9962 153.101C11.3848 153.143 11.7755 153.2 12.17 153.296C13.7678 153.686 15.289 154.158 16.9123 154.347C16.9182 155.041 17.034 156.343 16.2921 156.69C15.0064 157.293 13.7639 157.449 12.3859 157.1C11.6106 156.903 10.845 156.416 10.6586 155.573C10.5957 155.279 11.0119 153.103 10.9962 153.101Z" fill="#FCBE9F"/>
<path d="M10.2858 67.5407C12.6746 66.9277 15.1911 68.197 17.5289 67.6392C21.3153 66.1315 25.1351 64.6888 28.9529 63.2185C30.6901 62.5504 32.4783 61.8053 34.3018 61.0466C34.8573 55.532 36.0959 51.3242 36.7966 47.27C37.1028 45.4923 36.934 43.6672 36.3275 41.9703C36.1332 41.4263 35.9212 40.8706 35.7151 40.3936C34.7925 38.2611 34.1133 36.0241 33.654 33.7438C32.7864 29.4334 32.2486 26.7491 30.3328 26.144C29.3985 25.8484 28.576 26.2879 28.2679 26.4357C27.7673 26.6762 10.7765 35.7501 10.0856 36.097C9.07667 36.6035 7.90091 37.5318 7.31204 38.2059C5.90464 39.8201 8.51723 50.1042 9.83825 63.1259C10.2858 67.5407 10.2858 67.5407 10.2858 67.5407Z" fill="url(#paint0_radial_303_684)"/>
<path d="M38.9164 109.487C38.5297 104.578 34.5921 76.7783 34.4567 74.9296C34.3409 73.3627 34.231 71.8472 34.1544 70.7277C33.4026 59.7873 35.7522 53.3622 36.8063 47.2071C37.1066 45.449 36.926 43.6476 36.3273 41.9684C36.133 41.4224 35.921 40.8686 35.7149 40.3897C35.0593 38.8741 33.014 30.0701 28.0479 26.5481C27.6573 26.7531 26.77 27.2222 25.5648 27.8627C28.2127 29.7272 30.6939 31.2014 33.6068 42.8927C30.9628 44.7887 26.1792 46.9765 21.3642 48.0309C19.1148 44.6212 15.8308 37.3289 12.386 34.9106C10.4545 35.2457 9.39256 36.5268 9.39256 36.5268C15.7759 38.677 16.9006 50.6167 16.9988 57.4143C17.0459 60.6446 16.0605 64.1272 12.3251 65.3097C11.5419 65.558 10.796 65.5817 10.0815 65.4536C11.0217 70.4281 10.3171 74.6971 8.70164 81.2956C7.32173 86.9265 5.85151 92.5415 6.24605 98.3281C6.69162 104.887 7.25888 111.509 8.46802 118.892C9.53191 125.388 7.02336 128.97 8.91166 136.723C9.9834 141.12 11.2239 149.715 10.5605 154.201C10.8471 155.24 15.7818 155.924 17.0518 154.688C16.9556 152.405 20.3298 128.301 20.8166 122.954C21.3309 117.292 23.6019 100.222 23.8492 97.2066C24.4852 100.585 26.0065 107.177 26.7053 110.747C27.2392 113.476 27.4335 116.261 27.2902 119.038C27.2588 119.663 27.2372 120.294 27.2313 120.897C27.2117 123.374 27.6003 125.818 28.3089 128.189C29.6044 132.521 31.2788 141.026 30.8489 145.529C31.1885 147.12 36.1527 146.978 37.3559 145.677C37.142 143.402 38.4944 116.066 38.8987 111.803C38.9694 111.031 38.9772 110.262 38.9164 109.487Z" fill="#52A93C"/>
<path d="M16.5649 24.2579C17.1616 23.4104 18.7731 23.8598 19.7585 23.911C21.3092 23.9919 22.8638 24.0805 24.4047 24.2737C24.7855 24.321 26.7032 24.3998 26.7935 24.9655C26.9525 25.9529 28.1243 28.1011 28.1714 29.0984C28.1714 29.0984 29.3727 33.9823 26.8092 34.4908L26.9172 39.7058L25.0485 35.1609C21.4937 36.5918 17.9094 33.7123 16.9633 32.9791C17.4815 29.3783 15.9368 26.962 16.239 25.608C16.2763 25.4286 16.4805 24.3762 16.5649 24.2579Z" fill="#F3A984"/>
<path d="M28.164 30.8526C28.164 30.8526 29.2279 33.3182 26.8096 34.4869C27.8813 35.2733 29.5635 36.5859 30.6922 37.5851C30.5449 37.254 29.5557 32.581 28.5291 30.4465C28.1169 29.5892 28.2189 30.415 28.164 30.8526Z" fill="#EFEFEF"/>
<path d="M25.0467 35.1589C25.0467 35.1589 23.9475 37.3308 22.8836 40.5315C17.0067 39.6978 14.4176 36.0182 14.4903 33.797C14.8377 32.8746 15.772 31.5029 17.0656 30.8013C16.9478 33.3555 21.1995 35.8941 25.0467 35.1589Z" fill="#EFEFEF"/>
<path d="M20.8716 8.5696C21.5723 7.80095 21.4369 7.17617 20.9991 6.64797C20.6164 6.18678 20.002 6.17495 19.5133 5.83202C18.7301 5.28214 17.9252 4.39721 17.0891 3.93011C17.1322 3.06095 16.5336 2.20162 15.7013 1.49801C10.478 -2.91679 0.0236855 2.69236 3.84151 14.8252C4.94466 18.3275 8.31099 23.9406 7.97534 31.6941C10.4918 30.1548 12.5469 24.5318 12.8414 21.8829C13.1436 19.169 12.6922 16.8315 12.8139 14.1019C12.8905 12.3399 20.1688 9.34022 20.8716 8.5696Z" fill="#54361F"/>
<path d="M21.5548 7.82856C21.1976 7.27868 20.5812 6.77808 20.0944 6.34251C19.3152 5.64481 18.4397 4.9254 17.5741 4.15478C15.8821 2.61946 12.4431 6.66769 13.6463 8.04731C13.8328 8.27988 15.9468 9.79157 15.9468 9.79157C16.6182 10.7672 20.3084 10.6391 21.1681 9.89406C22.0279 9.15301 21.9631 8.45727 21.5548 7.82856Z" fill="#8B0026"/>
<path d="M28.9956 29.9478C28.6011 31.4063 28.1614 33.1762 26.7579 33.6137C25.0659 34.1419 20.6337 32.0804 18.504 29.3586C16.019 26.1815 14.6332 21.4277 15.4909 19.1888C16.1308 17.5194 19.0202 16.2088 20.5415 15.0341C21.6348 14.1886 22.8773 13.6505 24.0982 13.1775C27.6864 11.7861 30.8408 11.9221 30.9409 15.5426C30.9919 17.3736 31.0233 19.2735 30.8584 21.0985C30.3363 26.8949 29.5688 27.8311 28.9956 29.9478Z" fill="#FCBE9F"/>
<path d="M31.6905 16.9104C32.1165 12.5251 31.4824 7.95267 25.9451 5.86746C20.6198 3.86307 14.0343 6.41536 11.6023 11.3702C10.933 12.734 10.7602 14.2792 10.9604 15.787C11.9399 23.164 14.5545 26.3293 17.5911 28.0459C16.8334 26.6525 16.2229 25.1723 15.9049 23.6173C15.4653 21.4671 15.6145 19.7011 17.3045 19.9889C18.6609 20.2195 18.7668 23.1207 18.7904 24.4806C18.8041 25.3202 19.7817 25.6552 20.0172 25.0856C20.767 23.2645 19.6226 20.7516 21.0556 19.1926C24.0921 15.8875 28.1612 14.6773 30.0574 15.1484C30.4519 15.2469 30.715 15.6096 30.7327 16.0176C30.7935 17.4602 30.9191 20.9132 30.7679 21.7982C30.7679 21.8001 31.3784 20.1367 31.6905 16.9104Z" fill="#54361F"/>
<path d="M46.2305 73.0709L55.9115 71.2163C55.9115 71.2163 55.9076 71.8431 55.4581 72.1032C55.0086 72.3654 44.9272 78.8713 44.9272 78.8713C44.5209 79.1314 44.0243 79.2083 43.5591 79.0821L24.3816 74.0091C24.2088 73.9382 24.0263 73.5617 24.0773 73.4454L46.2305 73.0709Z" fill="#C5C0B6"/>
<path d="M36.3629 66.3601L55.6012 70.8124C55.9408 70.8735 56.0291 71.3208 55.7386 71.5081L45.0723 78.2801C44.5521 78.6092 43.9201 78.7117 43.3233 78.5599L24.2322 73.7037C24.0418 73.6544 24.0045 73.4001 24.1733 73.2996L35.4011 66.5355C35.6896 66.364 36.0311 66.301 36.3629 66.3601Z" fill="#F0ECE6"/>
<path d="M36.5455 66.8704C36.6437 66.8113 36.7477 66.7896 36.8596 66.8152C40.0728 67.5583 55.2185 71.1551 55.2185 71.1551C55.3382 71.1768 55.3696 71.3345 55.2656 71.4015L44.8858 77.9902C44.5835 78.1834 44.2361 78.2859 43.8769 78.2859C43.7218 78.2859 43.5648 78.2661 43.4137 78.2267L25.8536 73.6464C25.6985 73.6069 25.6691 73.398 25.8065 73.3153L36.5455 66.8704Z" fill="#33312F"/>
<path d="M10.4799 59.3359C10.2973 61.2792 10.4407 65.8241 10.4407 65.8241C10.4407 65.8241 24.3065 73.069 25.2919 73.2287C26.4559 73.4159 32.0659 70.9602 32.5507 72.6237C32.8039 73.4889 29.8281 74.2595 30.0951 74.5867C31.5045 75.7259 32.4211 76.1082 35.5087 76.9537C34.1249 78.0535 31.8106 78.5186 31.1845 78.5206C28.3167 78.5245 24.866 77.204 22.5674 76.4373C15.3028 74.0131 12.2799 73.3332 6.78575 71.3465C5.81805 70.9957 4.17315 70.5936 3.69028 69.7382C3.09552 68.6542 2.24561 58.9732 2.24561 58.9732L10.4799 59.3359Z" fill="#F3BC97"/>
<path d="M12.1895 59.4265C11.8911 60.7588 9.65932 62.1818 7.33329 62.3631C3.77457 62.6391 -0.265072 60.9855 0.0136589 59.3339C0.0136589 59.3339 3.0169 40.6321 7.85936 37.6836C10.6722 35.9709 12.4545 39.3766 13.3751 41.3593C13.7304 49.2114 12.1895 59.4265 12.1895 59.4265Z" fill="#EFEFEF"/>
<path d="M47.5041 70.5699C47.8083 71.2735 48.7898 71.3326 48.8467 70.5699C48.9095 69.7283 48.566 67.718 48.4149 67.3633C48.0557 66.5138 46.715 65.3175 46.0751 64.6651C45.7198 64.3044 45.3724 65.2465 46.1477 67.7279C46.3401 68.3389 47.1802 69.819 47.5041 70.5699Z" fill="#F3BC97"/>
<path d="M34.0033 45.5081C30.6624 48.019 24.0868 49.9998 24.0868 49.9998L24.0652 58.7683C29.7262 59.0994 33.4812 54.7141 33.4812 54.7141L34.0033 45.5081Z" fill="#465266"/>
<path d="M73.7164 45.7481C72.2834 45.7481 70.9546 45.4112 69.7827 44.7332C66.9562 43.0993 65.3918 39.6837 65.378 35.1191C65.3505 25.7849 71.9125 14.3715 80.0055 9.67883C83.9902 7.36894 87.753 7.00233 90.5972 8.64803C93.4238 10.2819 94.9863 13.6955 95 18.264C95.0255 27.6001 88.4636 39.0117 80.3726 43.7043C78.0308 45.0623 75.7656 45.7481 73.7164 45.7481ZM80.2764 10.1538C72.3345 14.7598 65.8943 25.9604 65.9218 35.1211C65.9355 39.4827 67.4017 42.7287 70.0516 44.2621C72.7251 45.8053 76.2937 45.4426 80.0997 43.2313C88.0396 38.6273 94.4798 27.4287 94.4563 18.264C94.4426 13.9005 92.9763 10.6544 90.3264 9.12108C87.6549 7.57985 84.0883 7.94641 80.2764 10.1538Z" fill="black"/>
<path d="M80.2977 29.9494C81.766 29.098 82.9653 29.7839 82.9712 31.4788C82.9771 33.1738 81.7836 35.2314 80.3154 36.0828C78.8472 36.9343 77.6478 36.2622 77.6419 34.5692C77.638 32.8742 78.8295 30.8008 80.2977 29.9494ZM75.0549 32.5214L76.2542 33.2073C76.5074 30.718 78.2171 27.9095 80.3095 26.6955C82.3882 25.4893 84.1097 26.3092 84.3884 28.4614L85.5799 26.4038C84.832 24.2693 82.7612 23.6071 80.3037 25.032C77.8363 26.4629 75.7752 29.5355 75.0549 32.5214ZM72.825 31.2462L73.9066 31.8809C75.0038 28.4062 77.4417 25.0103 80.2997 23.3528C83.1459 21.7032 85.5956 22.2669 86.7066 24.4289L87.7823 22.5586C86.3572 20.2901 83.5307 19.8111 80.2958 21.6874C77.0472 23.5716 74.2324 27.3202 72.825 31.2462ZM70.6992 30.0302L71.7552 30.6353C73.461 26.252 76.6389 22.1269 80.2899 20.0102C83.9291 17.9013 87.107 18.3408 88.8442 20.7138L89.8943 18.8888C87.8706 16.3975 84.3158 16.0113 80.286 18.3468C76.2444 20.6882 72.7033 25.1877 70.6992 30.0302Z" fill="black"/>
<path d="M42.9538 72.6508C42.9538 73.3958 42.3531 73.9989 41.6112 73.9989C40.8692 73.9989 40.2686 73.3958 40.2686 72.6508C40.2686 71.9058 40.8692 71.3027 41.6112 71.3027C42.3531 71.3027 42.9538 71.9058 42.9538 72.6508Z" fill="black"/>
<path d="M80.2976 72.9248H41.611C41.4618 72.9248 41.3381 72.8006 41.3381 72.6509C41.3381 72.5011 41.4618 72.3769 41.611 72.3769H80.0248V43.4679C80.0248 43.3181 80.1484 43.1939 80.2976 43.1939C80.4468 43.1939 80.5705 43.3181 80.5705 43.4679V72.6509C80.5705 72.8006 80.4468 72.9248 80.2976 72.9248Z" fill="black"/>
<defs>
<radialGradient id="paint0_radial_303_684" cx="0" cy="0" r="1" gradientUnits="userSpaceOnUse" gradientTransform="translate(25.597 37.1524) scale(11.7583 11.8062)">
<stop stop-color="#E3E3E3"/>
<stop offset="0.3513" stop-color="#E9E9E9"/>
<stop offset="1" stop-color="#EFEFEF"/>
</radialGradient>
</defs>
</svg>
