<svg width="200" height="174" viewBox="0 0 200 174" fill="none" xmlns="http://www.w3.org/2000/svg">
<path d="M195.212 103.309C193.763 100.029 191.773 96.8958 189.442 94.2445C187.474 92.0076 185.263 90.1139 182.926 88.7672C178.779 86.3749 175.022 86.1548 172.309 87.728L164.104 92.49L185.234 128.779L193.439 124.017C196.117 122.463 197.777 119.161 197.79 114.464C197.799 110.884 196.846 107.006 195.212 103.309Z" fill="#353433"/>
<path d="M174.717 93.5291C166.48 88.7801 159.782 92.5935 159.756 102.03C159.73 111.483 166.382 122.991 174.623 127.74C182.861 132.489 189.558 128.679 189.584 119.226C189.61 109.79 182.955 98.278 174.717 93.5291Z" fill="#232221"/>
<path d="M174.902 98.6277C180.432 101.959 184.806 109.822 184.666 116.189C184.527 122.557 179.93 125.021 174.396 121.689C168.866 118.358 164.492 110.495 164.632 104.128C164.771 97.7633 169.368 95.2998 174.902 98.6277Z" fill="#FAFAFA"/>
<path d="M169.792 120.54L163.305 116.801V109.757L169.792 113.499V120.54Z" fill="#232221"/>
<path d="M178.065 115.772L169.792 120.54V113.499L178.065 108.728V115.772Z" fill="#232221"/>
<path d="M169.792 113.499L163.305 109.757L171.578 104.989L178.065 108.728L169.792 113.499Z" fill="#353433"/>
<path d="M112.013 153.854L105.526 150.112V143.071L112.013 146.81V153.854Z" fill="#232221"/>
<path d="M120.283 149.083L112.013 153.854V146.81L120.283 142.042V149.083Z" fill="#232221"/>
<path d="M112.013 146.81L105.526 143.071L113.796 138.299L120.283 142.042L112.013 146.81Z" fill="#353433"/>
<path d="M118.512 147.529C117.063 144.249 115.072 141.116 112.738 138.465C110.77 136.228 108.56 134.334 106.222 132.987C102.076 130.595 98.3185 130.375 95.6051 131.948L87.3999 136.71L108.53 172.999L116.735 168.237C119.413 166.683 121.073 163.381 121.086 158.684C121.099 155.104 120.146 151.222 118.512 147.529Z" fill="#353433"/>
<path d="M98.0174 137.746C89.7799 132.997 83.0822 136.81 83.0562 146.247C83.0303 155.699 89.6826 167.208 97.9234 171.957C106.161 176.706 112.859 172.895 112.888 163.443C112.91 154.006 106.255 142.498 98.0174 137.746Z" fill="#232221"/>
<path opacity="0.5" d="M98.0042 142.579C92.0943 139.17 87.2866 141.906 87.2671 148.678C87.2477 155.46 92.023 163.718 97.9329 167.127C103.843 170.535 108.65 167.8 108.67 161.018C108.693 154.246 103.914 145.988 98.0042 142.579Z" fill="#232221"/>
<path d="M93.1479 141.915L93.5694 141.893L96.2763 142.197C96.2763 142.197 96.8631 142.278 96.4546 142.388C94.5063 142.912 93.2127 144.816 93.1479 147.797C93.0377 152.864 96.513 159.115 100.915 161.766C103.587 163.372 105.982 163.284 107.477 161.834C107.775 161.546 107.292 162.53 107.292 162.53L106.407 164.103C104.825 166.913 101.502 167.522 97.7092 165.239C92.4996 162.103 88.3824 154.699 88.5153 148.701C88.6094 144.434 90.0001 141.818 93.1479 141.915Z" fill="#C1C1C1"/>
<path d="M98.2022 142.848C103.733 146.179 108.106 154.042 107.967 160.41C107.827 166.777 103.23 169.241 97.6964 165.91C92.1658 162.578 87.7926 154.715 87.932 148.348C88.0714 141.98 92.6683 139.517 98.2022 142.848ZM98.1859 143.521C92.9763 140.384 88.6452 142.705 88.5155 148.701C88.3858 154.699 92.4997 162.103 97.7126 165.239C102.922 168.376 107.253 166.055 107.383 160.057C107.513 154.058 103.396 146.655 98.1859 143.521Z" fill="#757575"/>
<path d="M99.567 146.392C103.039 148.535 105.743 153.537 105.61 157.557C105.477 161.581 102.553 163.103 99.0807 160.96C95.6087 158.817 92.905 153.819 93.0379 149.795C93.1708 145.771 96.095 144.249 99.567 146.392Z" fill="white"/>
<path d="M93.051 149.024C93.1871 144.851 95.8066 143.055 99.1327 144.408C99.5412 144.573 99.9627 144.79 100.391 145.055C102.611 146.428 104.553 148.84 105.785 151.497C106.719 153.508 107.247 155.66 107.179 157.606C107.03 162.128 103.743 163.841 99.8427 161.429L99.0776 160.963C102.55 163.106 105.471 161.584 105.607 157.561C105.665 155.829 105.195 153.912 104.365 152.125C103.269 149.762 101.541 147.616 99.5639 146.396C99.1813 146.159 98.8085 145.968 98.4454 145.819C95.4856 144.615 93.158 146.214 93.038 149.798C93.0348 149.924 93.051 149.024 93.051 149.024Z" fill="#C1C1C1"/>
<path d="M35.4563 99.6441C34.004 96.3648 32.0167 93.2312 29.6826 90.58C27.7148 88.3431 25.5038 86.4493 23.1665 85.1026C19.0201 82.7103 15.2628 82.4902 12.5493 84.0635L4.34424 88.8254L25.4746 125.114L33.6798 120.352C36.3576 118.799 38.0174 115.497 38.0304 110.799C38.0433 107.219 37.0902 103.338 35.4563 99.6441Z" fill="#1C1B1B"/>
<path d="M14.9612 89.8645C6.72366 85.1155 0.0260104 88.9257 7.55761e-05 98.3654C-0.0258593 107.818 6.62641 119.326 14.864 124.078C23.1015 128.827 29.7992 125.014 29.8284 115.565C29.8543 106.122 23.1988 94.6134 14.9612 89.8645Z" fill="#232221"/>
<path opacity="0.5" d="M14.9485 94.6944C9.0386 91.2856 4.23094 94.0211 4.21148 100.793C4.19203 107.575 8.96727 115.833 14.8772 119.242C20.7871 122.651 25.5948 119.915 25.6142 113.133C25.6337 106.361 20.8617 98.1032 14.9485 94.6944Z" fill="#232221"/>
<path d="M10.0921 94.0308L10.5135 94.0081L13.2205 94.3124C13.2205 94.3124 13.8073 94.3933 13.3988 94.5034C11.4504 95.0278 10.1569 96.9313 10.0921 99.9128C9.98186 104.979 13.4571 111.233 17.8564 113.881C20.5276 115.487 22.9234 115.4 24.4179 113.949C24.7161 113.661 24.2331 114.645 24.2331 114.645L23.3481 116.219C21.766 119.028 18.4431 119.637 14.6502 117.355C9.44049 114.218 5.32334 106.814 5.45625 100.816C5.55351 96.5493 6.94424 93.9336 10.0921 94.0308Z" fill="#C1C1C1"/>
<path d="M15.146 94.963C20.6799 98.2941 25.0499 106.157 24.9105 112.525C24.7711 118.892 20.1741 121.356 14.6403 118.028C9.10965 114.697 4.7364 106.834 4.8758 100.466C5.0152 94.0987 9.61215 91.632 15.146 94.963ZM15.1298 95.6364C9.92011 92.4995 5.58899 94.8206 5.45931 100.816C5.32964 106.814 9.44355 114.218 14.6532 117.355C19.8629 120.492 24.194 118.171 24.3237 112.172C24.4566 106.177 20.3394 98.7732 15.1298 95.6364Z" fill="#757575"/>
<path d="M16.5075 98.5078C19.9795 100.651 22.6832 105.652 22.5503 109.673C22.4174 113.697 19.4932 115.218 16.0212 113.075C12.5492 110.932 9.84541 105.934 9.97833 101.91C10.1112 97.8862 13.0387 96.3648 16.5075 98.5078Z" fill="white"/>
<path d="M9.99435 101.14C10.1337 96.9669 12.7499 95.1702 16.0761 96.5234C16.4846 96.6917 16.906 96.9054 17.3339 97.1708C19.5546 98.5434 21.4964 100.955 22.7283 103.613C23.662 105.623 24.1872 107.776 24.1224 109.721C23.97 114.244 20.686 115.956 16.786 113.545L16.021 113.078C19.493 115.221 22.4139 113.7 22.5501 109.676C22.6084 107.944 22.1384 106.028 21.3084 104.241C20.2127 101.878 18.4848 99.7314 16.5072 98.511C16.1279 98.2747 15.7519 98.0837 15.3888 97.9348C12.429 96.7306 10.1013 98.3297 9.98139 101.913C9.97814 102.043 9.99435 101.14 9.99435 101.14Z" fill="#C1C1C1"/>
<path d="M116.253 138.274L116.234 145.098L199.981 96.5527L200 89.7287L116.253 138.274Z" fill="#62B74E"/>
<path d="M105.435 13.2692C100.125 10.2069 95.3205 9.92522 91.8485 11.9388L8.10156 60.4838L95.596 115.843L112.269 17.2121L105.435 13.2692Z" fill="#62B74E"/>
<path d="M20.8325 68.5379L95.5995 115.84L180.958 56.8063L110.869 16.3996L20.8325 68.5379Z" fill="#F0ECE6"/>
<path d="M196.696 75.4332C194.839 71.2346 192.291 67.2237 189.305 63.8279C186.786 60.963 183.953 58.5383 180.954 56.8096L97.207 105.355C100.203 107.083 103.036 109.508 105.555 112.373C108.541 115.769 111.089 119.78 112.946 123.978C115.04 128.714 116.263 133.687 116.25 138.277L199.997 89.7319C200.013 85.1384 198.794 80.166 196.696 75.4332Z" fill="url(#paint0_linear_303_236)"/>
<path d="M88.9311 89.0813L85.002 86.8153L88.9311 84.5525L92.8602 86.8153L88.9311 89.0813Z" fill="#3A3938"/>
<path d="M88.9311 98.4756L85.002 96.2096V86.8152L88.9311 89.0813V98.4756Z" fill="#2E2D2B"/>
<path d="M92.8603 96.2096L88.9312 98.4756V89.0813L92.8603 86.8152V96.2096Z" fill="#353433"/>
<path d="M36.2832 58.7293L32.354 56.4632L36.2832 54.1972L40.2123 56.4632L36.2832 58.7293Z" fill="#3A3938"/>
<path d="M36.2832 68.1237L32.354 65.8577V56.4633L36.2832 58.7294V68.1237Z" fill="#2E2D2B"/>
<path d="M40.2123 65.8577L36.2832 68.1237V58.7294L40.2123 56.4633V65.8577Z" fill="#232221"/>
<path opacity="0.8" d="M187.137 61.5586C185.198 59.6778 183.123 58.0559 180.958 56.8064L111.819 16.9468L105.435 13.2661C103.659 12.2431 101.947 11.5568 100.313 11.136L16.2583 59.5968C17.9797 60.0047 19.7984 60.7234 21.6852 61.8111L28.1235 65.5241L97.2042 105.351C98.274 105.966 99.3147 106.695 100.333 107.475C100.414 107.537 100.491 107.592 100.573 107.656C101.471 108.359 102.333 109.145 103.182 109.958L187.137 61.5586Z" fill="url(#paint1_linear_303_236)"/>
<path d="M28.1266 65.5241L21.6883 61.811C11.1328 55.7251 2.5678 60.6165 2.53214 72.7106L2.5127 79.5347L22.7386 91.195C24.9399 92.464 26.7683 94.2898 28.0391 96.4879L37.1552 112.24L81.5135 137.814L85.407 135.596C89.8808 133.052 95.3692 133.065 99.8268 135.639L116.227 145.094L116.247 138.27L28.1266 65.5241Z" fill="#52A93C"/>
<path d="M44.6698 96.9993L116.25 138.267C116.282 126.173 107.76 111.434 97.2073 105.351L27.0859 64.9252L44.6698 96.9993Z" fill="#C5C0B6"/>
<path d="M189.306 63.8246L105.559 112.37C108.544 115.765 111.092 119.776 112.95 123.975L196.697 75.4299C194.839 71.2345 192.291 67.2204 189.306 63.8246Z" fill="#F6F2EC"/>
<path d="M103.202 98.4399L16.064 48.2051V51.6753L103.202 101.913V98.4399Z" fill="#C5C0B6"/>
<path d="M186.816 53.7084L103.202 101.914V98.44L186.816 50.2349V53.7084Z" fill="#D8D3CC"/>
<path d="M103.202 98.4399L16.064 48.2051L99.678 0L186.816 50.2348L103.202 98.4399Z" fill="#F0ECE6"/>
<path d="M32.915 48.7165L27.1347 52.0475C26.8203 52.2288 26.3145 52.2288 26.0033 52.0475L19.8438 48.4963C19.5325 48.3151 19.5325 48.0237 19.8438 47.8424L25.624 44.5113C25.9352 44.3301 26.4442 44.3301 26.7554 44.5113L32.915 48.0626C33.2262 48.2406 33.2262 48.5352 32.915 48.7165ZM40.449 43.7182L34.2895 40.167C33.9783 39.9857 33.4693 39.9857 33.1581 40.167L27.3779 43.4981C27.0634 43.6794 27.0634 43.9707 27.3779 44.152L33.5374 47.7032C33.8486 47.8845 34.3576 47.8845 34.6688 47.7032L40.449 44.3689C40.7635 44.1909 40.7635 43.8963 40.449 43.7182ZM47.9863 39.3739L41.8268 35.8227C41.5124 35.6414 41.0066 35.6414 40.6954 35.8227L34.9152 39.1538C34.604 39.3351 34.604 39.6264 34.9152 39.8077L41.0747 43.3589C41.3859 43.5402 41.8949 43.5402 42.2061 43.3589L47.9863 40.0278C48.2975 39.8465 48.2975 39.552 47.9863 39.3739ZM55.5204 35.0296L49.3609 31.4784C49.0465 31.2971 48.5407 31.2971 48.2295 31.4784L42.4493 34.8095C42.138 34.9907 42.138 35.2821 42.4493 35.4634L48.6088 39.0146C48.92 39.1959 49.429 39.1959 49.7402 39.0146L55.5204 35.6835C55.8349 35.5022 55.8349 35.2076 55.5204 35.0296ZM63.0577 30.6853L56.8982 27.1341C56.587 26.9528 56.078 26.9528 55.7668 27.1341L49.9866 30.4684C49.6754 30.6497 49.6754 30.941 49.9866 31.1223L56.1461 34.6735C56.4573 34.8548 56.9663 34.8548 57.2775 34.6735L63.0577 31.3392C63.369 31.1579 63.369 30.8633 63.0577 30.6853ZM40.8219 53.2744L35.0416 56.6055C34.7304 56.7868 34.2214 56.7868 33.9102 56.6055L27.7507 53.0543C27.4362 52.873 27.4362 52.5817 27.7507 52.4004L33.5309 49.0661C33.8421 48.8848 34.3511 48.8848 34.6623 49.0661L40.8219 52.6173C41.1363 52.8018 41.1363 53.0932 40.8219 53.2744ZM48.3559 48.2762L42.1964 44.725C41.8819 44.5437 41.3762 44.5437 41.065 44.725L35.2847 48.0561C34.9735 48.2374 34.9735 48.5287 35.2847 48.71L41.4443 52.2612C41.7555 52.4425 42.2645 52.4425 42.5757 52.2612L48.3559 48.9301C48.6704 48.7488 48.6704 48.4575 48.3559 48.2762ZM55.8933 43.9319L49.7337 40.3807C49.4225 40.1994 48.9135 40.1994 48.6023 40.3807L42.8221 43.7118C42.5109 43.893 42.5109 44.1844 42.8221 44.3657L48.9816 47.9169C49.2928 48.0982 49.8018 48.0982 50.113 47.9169L55.8933 44.5826C56.2077 44.4045 56.2077 44.1132 55.8933 43.9319ZM63.4273 39.5876L57.2678 36.0364C56.9566 35.8551 56.4476 35.8551 56.1364 36.0364L50.3561 39.3707C50.0449 39.552 50.0449 39.8433 50.3561 40.0246L56.5157 43.5758C56.8269 43.7571 57.3359 43.7571 57.6471 43.5758L63.4273 40.2447C63.7418 40.0602 63.7418 39.7689 63.4273 39.5876ZM70.9647 35.2432L64.8051 31.692C64.4906 31.5108 63.9849 31.5108 63.6737 31.692L57.8934 35.0231C57.5822 35.2044 57.5822 35.4958 57.8934 35.677L64.053 39.2282C64.3642 39.4095 64.8732 39.4095 65.1844 39.2282L70.9647 35.8972C71.2759 35.7159 71.2759 35.4213 70.9647 35.2432ZM48.7287 57.8324L42.9485 61.1667C42.6373 61.348 42.1283 61.348 41.8171 61.1667L35.6576 57.6155C35.3463 57.4342 35.3463 57.1429 35.6576 56.9616L41.4378 53.6273C41.749 53.446 42.258 53.446 42.5692 53.6273L48.7287 57.1785C49.0432 57.3598 49.0432 57.6511 48.7287 57.8324ZM56.266 52.8342L50.1065 49.283C49.7953 49.1017 49.2863 49.1017 48.9751 49.283L43.1949 52.614C42.8837 52.7953 42.8837 53.0867 43.1949 53.268L49.3544 56.8192C49.6657 57.0005 50.1746 57.0005 50.4858 56.8192L56.266 53.4849C56.5773 53.3068 56.5773 53.0155 56.266 52.8342ZM63.8001 48.4899L57.6406 44.9387C57.3294 44.7574 56.8204 44.7574 56.5092 44.9387L50.729 48.273C50.4178 48.4543 50.4178 48.7456 50.729 48.9269L56.8885 52.4781C57.1997 52.6594 57.7087 52.6594 58.0199 52.4781L63.8001 49.147C64.1146 48.9625 64.1146 48.6711 63.8001 48.4899ZM71.3374 44.1455L65.1779 40.5943C64.8635 40.4131 64.3577 40.4131 64.0465 40.5943L58.2663 43.9254C57.9551 44.1067 57.9551 44.398 58.2663 44.5793L64.4258 48.1305C64.7371 48.3118 65.246 48.3118 65.5572 48.1305L71.3374 44.7962C71.6487 44.6182 71.6487 44.3268 71.3374 44.1455ZM78.8715 39.8012L72.712 36.25C72.4008 36.0687 71.8918 36.0687 71.5806 36.25L65.8004 39.5843C65.4892 39.7656 65.4892 40.057 65.8004 40.2382L71.9599 43.7895C72.2743 43.9707 72.7801 43.9707 73.0913 43.7895L78.8715 40.4584C79.1828 40.2738 79.1828 39.9825 78.8715 39.8012ZM56.6357 62.3904L50.8554 65.7247C50.5442 65.906 50.0352 65.906 49.724 65.7247L43.5644 62.1735C43.2532 61.9922 43.2532 61.7009 43.5644 61.5196L49.3447 58.1885C49.6559 58.0072 50.1649 58.0072 50.4761 58.1885L56.6357 61.7397C56.9501 61.9178 56.9501 62.2123 56.6357 62.3904ZM64.173 57.3954L58.0134 53.8442C57.7022 53.6629 57.1932 53.6629 56.882 53.8442L51.1018 57.1753C50.7906 57.3565 50.7906 57.6479 51.1018 57.8292L57.2613 61.3804C57.5725 61.5617 58.0815 61.5617 58.3927 61.3804L64.173 58.0493C64.4842 57.868 64.4842 57.5734 64.173 57.3954ZM71.707 53.0511L65.5475 49.4999C65.233 49.3186 64.7273 49.3186 64.4161 49.4999L58.6358 52.8309C58.3246 53.0122 58.3246 53.3036 58.6358 53.4849L64.7954 57.0361C65.1066 57.2173 65.6156 57.2173 65.9268 57.0361L71.707 53.705C72.0215 53.5237 72.0215 53.2291 71.707 53.0511ZM79.2444 48.7035L73.0848 45.1523C72.7736 44.971 72.2646 44.971 71.9534 45.1523L66.1732 48.4834C65.8619 48.6647 65.8619 48.956 66.1732 49.1373L72.3327 52.6885C72.6439 52.8698 73.1529 52.8698 73.4641 52.6885L79.2444 49.3574C79.5556 49.1761 79.5556 48.8848 79.2444 48.7035ZM86.7784 44.3592L80.6189 40.808C80.3077 40.6267 79.7987 40.6267 79.4875 40.808L73.7073 44.1423C73.396 44.3236 73.396 44.6149 73.7073 44.7962L79.8668 48.3474C80.178 48.5287 80.687 48.5287 80.9982 48.3474L86.7784 45.0131C87.0929 44.8318 87.0929 44.5405 86.7784 44.3592ZM79.6269 57.6155L73.4673 54.0643C73.1561 53.883 72.6472 53.883 72.3359 54.0643L66.5557 57.3954C66.2445 57.5767 66.2445 57.868 66.5557 58.0493L72.7152 61.6005C73.0265 61.7818 73.5354 61.7818 73.8466 61.6005L79.6269 58.2662C79.9381 58.0882 79.9381 57.7936 79.6269 57.6155ZM87.1609 53.2712L81.0014 49.72C80.6902 49.5387 80.1812 49.5387 79.87 49.72L74.0898 53.0543C73.7786 53.2356 73.7786 53.5269 74.0898 53.7082L80.2493 57.2594C80.5638 57.4407 81.0695 57.4407 81.3807 57.2594L87.1609 53.9284C87.4754 53.7438 87.4754 53.4492 87.1609 53.2712ZM94.6983 48.9236L88.5387 45.3724C88.2275 45.1912 87.7186 45.1912 87.4073 45.3724L81.6271 48.7035C81.3127 48.8848 81.3127 49.1761 81.6271 49.3574L87.7866 52.9086C88.0979 53.0899 88.6068 53.0899 88.9181 52.9086L94.6983 49.5743C95.0095 49.3963 95.0095 49.1049 94.6983 48.9236Z" fill="#465266"/>
<path d="M76.142 23.7934L70.3618 27.1277C70.0473 27.309 69.5416 27.309 69.2304 27.1277L63.0708 23.5765C62.7596 23.3952 62.7596 23.1038 63.0708 22.9226L68.8511 19.5883C69.1655 19.407 69.6713 19.407 69.9825 19.5883L76.142 23.1395C76.4565 23.3207 76.4565 23.6121 76.142 23.7934ZM83.6793 18.7951L77.5198 15.2439C77.2086 15.0627 76.6996 15.0627 76.3884 15.2439L70.6082 18.5782C70.297 18.7595 70.297 19.0509 70.6082 19.2322L76.7677 22.7834C77.0789 22.9646 77.5879 22.9646 77.8991 22.7834L83.6793 19.4523C83.9906 19.2678 83.9906 18.9764 83.6793 18.7951ZM91.2134 14.4508L85.0539 10.8996C84.7394 10.7183 84.2337 10.7183 83.9225 10.8996L78.1422 14.2307C77.831 14.412 77.831 14.7033 78.1422 14.8846L84.3018 18.4358C84.613 18.6171 85.122 18.6171 85.4332 18.4358L91.2134 15.1015C91.5246 14.9235 91.5246 14.6321 91.2134 14.4508ZM98.7507 10.1065L92.5912 6.55529C92.28 6.37401 91.771 6.37401 91.4598 6.55529L85.6796 9.88961C85.3684 10.0709 85.3684 10.3622 85.6796 10.5435L91.8391 14.0947C92.1503 14.276 92.6593 14.276 92.9705 14.0947L98.7507 10.7637C99.062 10.5791 99.062 10.2878 98.7507 10.1065ZM106.285 5.76218L100.125 2.21097C99.8141 2.02969 99.3051 2.02969 98.9939 2.21097L93.2136 5.54205C92.9024 5.72333 92.9024 6.01468 93.2136 6.19596L99.3732 9.74717C99.6844 9.92845 100.193 9.92845 100.505 9.74717L106.285 6.41609C106.596 6.23481 106.596 5.94346 106.285 5.76218ZM84.0489 28.3513L78.2687 31.6857C77.9574 31.8669 77.4485 31.8669 77.1373 31.6857L70.9777 28.1345C70.6665 27.9532 70.6665 27.6618 70.9777 27.4805L76.7579 24.1462C77.0692 23.9649 77.5782 23.9649 77.8894 24.1462L84.0489 27.6974C84.3634 27.8787 84.3634 28.1733 84.0489 28.3513ZM91.5862 23.3564L85.4267 19.8051C85.1155 19.6239 84.6065 19.6239 84.2953 19.8051L78.5151 23.1362C78.2038 23.3175 78.2038 23.6089 78.5151 23.7901L84.6746 27.3413C84.9858 27.5226 85.4947 27.5226 85.806 27.3413L91.5862 24.0103C91.8974 23.829 91.8974 23.5344 91.5862 23.3564ZM99.1203 19.0088L92.9607 15.4576C92.6495 15.2763 92.1406 15.2763 91.8293 15.4576L86.0491 18.7887C85.7379 18.97 85.7379 19.2613 86.0491 19.4426L92.2087 22.9938C92.5199 23.1751 93.0288 23.1751 93.3401 22.9938L99.1203 19.6627C99.4348 19.4814 99.4348 19.1901 99.1203 19.0088ZM106.658 14.6645L100.498 11.1133C100.187 10.932 99.6779 10.932 99.3667 11.1133L93.5865 14.4443C93.2752 14.6256 93.2752 14.917 93.5865 15.0983L99.746 18.6495C100.057 18.8307 100.566 18.8307 100.877 18.6495L106.658 15.3152C106.969 15.1371 106.969 14.8458 106.658 14.6645ZM114.192 10.3202L108.032 6.76895C107.721 6.58767 107.212 6.58767 106.901 6.76895L101.121 10.1033C100.809 10.2845 100.809 10.5759 101.121 10.7572L107.28 14.3084C107.595 14.4897 108.1 14.4897 108.411 14.3084L114.192 10.9773C114.506 10.7928 114.506 10.5014 114.192 10.3202ZM91.959 32.9126L86.1788 36.2436C85.8676 36.4249 85.3586 36.4249 85.0474 36.2436L78.8879 32.6924C78.5767 32.5111 78.5767 32.2198 78.8879 32.0385L84.6681 28.7074C84.9825 28.5262 85.4883 28.5262 85.7995 28.7074L91.959 32.2586C92.2703 32.4399 92.2703 32.7313 91.959 32.9126ZM99.4931 27.9143L93.3336 24.3631C93.0224 24.1818 92.5134 24.1818 92.2022 24.3631L86.4219 27.6942C86.1107 27.8755 86.1107 28.1668 86.4219 28.3481L92.5815 31.8993C92.8927 32.0806 93.4017 32.0806 93.7129 31.8993L99.4931 28.565C99.8043 28.3869 99.8043 28.0924 99.4931 27.9143ZM107.027 23.57L100.868 20.0188C100.556 19.8375 100.047 19.8375 99.7363 20.0188L93.956 23.3499C93.6448 23.5312 93.6448 23.8225 93.956 24.0038L100.116 27.555C100.427 27.7363 100.936 27.7363 101.247 27.555L107.027 24.2239C107.342 24.0426 107.342 23.748 107.027 23.57ZM114.564 19.2257L108.405 15.6745C108.094 15.4932 107.585 15.4932 107.274 15.6745L101.493 19.0056C101.182 19.1868 101.182 19.4782 101.493 19.6595L107.653 23.2107C107.967 23.392 108.473 23.392 108.784 23.2107L114.564 19.8764C114.876 19.6983 114.876 19.4037 114.564 19.2257ZM122.099 14.8814L115.939 11.3302C115.625 11.1489 115.119 11.1489 114.808 11.3302L109.027 14.6645C108.716 14.8458 108.716 15.1371 109.027 15.3184L115.187 18.8696C115.498 19.0509 116.007 19.0509 116.318 18.8696L122.099 15.5353C122.413 15.354 122.413 15.0594 122.099 14.8814ZM99.8659 37.4705L94.0857 40.8016C93.7745 40.9829 93.2655 40.9829 92.9543 40.8016L86.7948 37.2504C86.4835 37.0691 86.4835 36.7778 86.7948 36.5965L92.575 33.2622C92.8862 33.0809 93.3952 33.0809 93.7064 33.2622L99.8659 36.8134C100.177 36.9979 100.177 37.2893 99.8659 37.4705ZM107.4 32.4723L101.24 28.9211C100.929 28.7398 100.42 28.7398 100.109 28.9211L94.3289 32.2554C94.0176 32.4367 94.0176 32.728 94.3289 32.9093L100.488 36.4605C100.8 36.6418 101.309 36.6418 101.62 36.4605L107.4 33.1294C107.714 32.9449 107.714 32.6536 107.4 32.4723ZM114.934 28.128L108.775 24.5768C108.463 24.3955 107.954 24.3955 107.643 24.5768L101.863 27.9078C101.552 28.0891 101.552 28.3805 101.863 28.5618L108.022 32.113C108.334 32.2943 108.843 32.2943 109.154 32.113L114.934 28.7787C115.249 28.6006 115.249 28.3093 114.934 28.128ZM122.471 23.7837L116.312 20.2325C116.001 20.0512 115.492 20.0512 115.18 20.2325L109.4 23.5668C109.086 23.7481 109.086 24.0394 109.4 24.2207L115.56 27.7719C115.871 27.9532 116.38 27.9532 116.691 27.7719L122.471 24.4408C122.783 24.2563 122.783 23.9649 122.471 23.7837ZM130.005 19.4393L123.846 15.8881C123.535 15.7068 123.026 15.7068 122.715 15.8881L116.934 19.2192C116.623 19.4005 116.623 19.6918 116.934 19.8731L123.094 23.4243C123.405 23.6056 123.914 23.6056 124.225 23.4243L130.005 20.0933C130.32 19.912 130.32 19.6206 130.005 19.4393ZM107.783 42.035L102.002 45.3693C101.691 45.5506 101.182 45.5506 100.871 45.3693L94.7114 41.8181C94.4002 41.6368 94.4002 41.3455 94.7114 41.1642L100.492 37.8299C100.803 37.6486 101.312 37.6486 101.623 37.8299L107.783 41.3811C108.097 41.5623 108.097 41.8537 107.783 42.035ZM115.32 37.0367L109.16 33.4855C108.849 33.3043 108.34 33.3043 108.029 33.4855L102.249 36.8199C101.934 37.0011 101.934 37.2925 102.249 37.4738L108.408 41.025C108.719 41.2063 109.228 41.2063 109.54 41.025L115.32 37.6939C115.631 37.5094 115.631 37.218 115.32 37.0367ZM122.854 32.6924L116.694 29.1412C116.383 28.9599 115.874 28.9599 115.563 29.1412L109.783 32.4723C109.472 32.6536 109.472 32.9449 109.783 33.1262L115.942 36.6774C116.254 36.8587 116.762 36.8587 117.074 36.6774L122.854 33.3463C123.168 33.1651 123.168 32.8737 122.854 32.6924Z" fill="#465266"/>
<path d="M92.6981 65.1518L86.5386 61.6006C86.2241 61.4193 85.7184 61.4193 85.4072 61.6006L79.6269 64.9349C79.3157 65.1162 79.3157 65.4075 79.6269 65.5888L85.7865 69.14C86.0977 69.3213 86.6066 69.3213 86.9179 69.14L92.6981 65.809C93.0126 65.6244 93.0126 65.3299 92.6981 65.1518ZM100.235 60.8075L94.0759 57.2563C93.7647 57.075 93.2557 57.075 92.9445 57.2563L87.1643 60.5874C86.853 60.7687 86.853 61.06 87.1643 61.2413L93.3238 64.7925C93.635 64.9738 94.1439 64.9738 94.4552 64.7925L100.235 61.4582C100.547 61.2801 100.547 60.9855 100.235 60.8075ZM107.77 56.4632L101.61 52.912C101.299 52.7307 100.79 52.7307 100.479 52.912L94.6983 56.2463C94.3871 56.4276 94.3871 56.7189 94.6983 56.9002L100.858 60.4514C101.169 60.6327 101.678 60.6327 101.989 60.4514L107.77 57.1203C108.084 56.9358 108.084 56.6412 107.77 56.4632ZM85.5336 79.0523L79.7534 82.3866C79.4422 82.5679 78.9332 82.5679 78.622 82.3866L72.4624 78.8354C72.1512 78.6542 72.1512 78.3628 72.4624 78.1815L78.2427 74.8472C78.5539 74.6659 79.0629 74.6659 79.3741 74.8472L85.5336 78.3984C85.848 78.5797 85.848 78.8711 85.5336 79.0523ZM93.0709 74.0541L86.9114 70.5029C86.5969 70.3216 86.0912 70.3216 85.78 70.5029L79.9997 73.8372C79.6885 74.0185 79.6885 74.3099 79.9997 74.4911L86.1593 78.0423C86.4705 78.2236 86.9795 78.2236 87.2907 78.0423L93.0709 74.708C93.3822 74.5267 93.3822 74.2354 93.0709 74.0541ZM100.605 69.7098L94.4455 66.1586C94.1343 65.9773 93.6253 65.9773 93.3141 66.1586L87.5338 69.4897C87.2226 69.6709 87.2226 69.9623 87.5338 70.1436L93.6934 73.6948C94.0046 73.8761 94.5136 73.8761 94.8248 73.6948L100.605 70.3605C100.919 70.1824 100.919 69.8911 100.605 69.7098ZM108.142 65.3655L101.983 61.8143C101.672 61.633 101.163 61.633 100.851 61.8143L95.0711 65.1453C94.7567 65.3266 94.7567 65.618 95.0711 65.7993L101.231 69.3505C101.542 69.5317 102.051 69.5317 102.362 69.3505L108.142 66.0194C108.454 65.8381 108.454 65.5467 108.142 65.3655ZM115.676 61.0211L109.517 57.4699C109.202 57.2887 108.697 57.2887 108.385 57.4699L102.605 60.801C102.294 60.9823 102.294 61.2736 102.605 61.4549L108.765 65.0061C109.079 65.1874 109.585 65.1874 109.896 65.0061L115.676 61.6718C115.991 61.4938 115.991 61.2024 115.676 61.0211ZM93.4437 83.6103L87.6635 86.9446C87.3523 87.1259 86.8433 87.1259 86.5321 86.9446L80.3726 83.3934C80.0613 83.2121 80.0613 82.9208 80.3726 82.7395L86.1528 79.4052C86.4673 79.2239 86.973 79.2239 87.2842 79.4052L93.4437 82.9564C93.7549 83.1377 93.7549 83.429 93.4437 83.6103ZM100.978 78.6121L94.8183 75.0609C94.5071 74.8796 93.9981 74.8796 93.6868 75.0609L87.9067 78.3952C87.5954 78.5765 87.5954 78.8678 87.9067 79.0491L94.0662 82.6003C94.3806 82.7816 94.8863 82.7816 95.1976 82.6003L100.978 79.2692C101.289 79.0847 101.289 78.7934 100.978 78.6121ZM108.512 74.2678L102.352 70.7166C102.041 70.5353 101.532 70.5353 101.221 70.7166L95.4407 74.0476C95.1295 74.2289 95.1295 74.5203 95.4407 74.7015L101.6 78.2527C101.911 78.434 102.42 78.434 102.732 78.2527L108.512 74.9184C108.826 74.7404 108.826 74.4491 108.512 74.2678ZM116.049 69.9234L109.89 66.3722C109.578 66.191 109.069 66.191 108.758 66.3722L102.978 69.7033C102.667 69.8846 102.667 70.176 102.978 70.3572L109.138 73.9084C109.452 74.0897 109.958 74.0897 110.269 73.9084L116.049 70.5774C116.36 70.3961 116.36 70.1047 116.049 69.9234ZM123.583 65.5791L117.424 62.0279C117.113 61.8466 116.604 61.8466 116.292 62.0279L110.512 65.359C110.201 65.5403 110.201 65.8316 110.512 66.0129L116.672 69.5641C116.983 69.7454 117.492 69.7454 117.803 69.5641L123.583 66.233C123.898 66.0518 123.898 65.7604 123.583 65.5791ZM101.351 88.1683L95.5704 91.5026C95.2592 91.6839 94.7502 91.6839 94.439 91.5026L88.2794 87.9514C87.9682 87.7701 87.9682 87.4788 88.2794 87.2975L94.0597 83.9664C94.3709 83.7851 94.8799 83.7851 95.1911 83.9664L101.351 87.5176C101.662 87.6956 101.662 87.9902 101.351 88.1683ZM108.885 83.1701L102.725 79.6189C102.414 79.4376 101.905 79.4376 101.594 79.6189L95.8135 82.9532C95.5023 83.1345 95.5023 83.4258 95.8135 83.6071L101.973 87.1583C102.284 87.3396 102.793 87.3396 103.104 87.1583L108.885 83.824C109.199 83.6459 109.199 83.3513 108.885 83.1701ZM116.422 78.829L110.262 75.2778C109.951 75.0965 109.442 75.0965 109.131 75.2778L103.351 78.6121C103.04 78.7934 103.04 79.0847 103.351 79.266L109.51 82.8172C109.825 82.9985 110.331 82.9985 110.642 82.8172L116.422 79.4861C116.733 79.2984 116.733 79.007 116.422 78.829ZM123.956 74.4814L117.797 70.9302C117.485 70.7489 116.976 70.7489 116.665 70.9302L110.885 74.2613C110.574 74.4426 110.574 74.7339 110.885 74.9152L117.044 78.4664C117.356 78.6477 117.865 78.6477 118.176 78.4664L123.956 75.1321C124.271 74.9541 124.271 74.6627 123.956 74.4814ZM131.49 70.1371L125.331 66.5859C125.016 66.4046 124.51 66.4046 124.199 66.5859L118.419 69.9202C118.108 70.1015 118.108 70.3928 118.419 70.5741L124.579 74.1253C124.89 74.3066 125.399 74.3066 125.71 74.1253L131.49 70.791C131.805 70.6097 131.805 70.3184 131.49 70.1371ZM109.267 92.7327L103.487 96.0671C103.173 96.2483 102.667 96.2483 102.356 96.0671L96.1961 92.5159C95.8848 92.3346 95.8848 92.0432 96.1961 91.8619L101.976 88.5276C102.288 88.3463 102.796 88.3463 103.108 88.5276L109.267 92.0788C109.582 92.2601 109.582 92.5547 109.267 92.7327ZM116.805 87.7377L110.645 84.1865C110.334 84.0052 109.825 84.0052 109.514 84.1865L103.733 87.5208C103.419 87.7021 103.419 87.9935 103.733 88.1748L109.893 91.726C110.204 91.9073 110.713 91.9073 111.024 91.726L116.805 88.3917C117.116 88.2104 117.116 87.9158 116.805 87.7377ZM124.339 83.3934L118.179 79.8422C117.868 79.6609 117.359 79.6609 117.048 79.8422L111.267 83.1765C110.953 83.3578 110.953 83.6492 111.267 83.8304L117.427 87.3816C117.738 87.5629 118.247 87.5629 118.558 87.3816L124.339 84.0473C124.653 83.866 124.653 83.5715 124.339 83.3934ZM131.876 79.0491L125.716 75.4979C125.405 75.3166 124.896 75.3166 124.585 75.4979L118.805 78.829C118.494 79.0103 118.494 79.3016 118.805 79.4829L124.964 83.0341C125.276 83.2154 125.785 83.2154 126.096 83.0341L131.876 79.703C132.187 79.5217 132.187 79.2271 131.876 79.0491ZM139.41 74.7048L133.251 71.1536C132.939 70.9723 132.43 70.9723 132.119 71.1536L126.339 74.4847C126.028 74.6659 126.028 74.9573 126.339 75.1386L132.498 78.6898C132.81 78.8711 133.319 78.8711 133.63 78.6898L139.41 75.3555C139.724 75.1774 139.724 74.8828 139.41 74.7048Z" fill="#465266"/>
<path d="M120.857 49.5711L115.077 52.9054C114.765 53.0867 114.256 53.0867 113.945 52.9054L107.786 49.3542C107.474 49.1729 107.474 48.8816 107.786 48.7003L113.566 45.3692C113.877 45.1879 114.386 45.1879 114.697 45.3692L120.857 48.9204C121.168 49.0985 121.168 49.3898 120.857 49.5711ZM128.391 44.5728L122.231 41.0217C121.92 40.8404 121.411 40.8404 121.1 41.0217L115.32 44.3527C115.008 44.534 115.008 44.8254 115.32 45.0066L121.479 48.5578C121.79 48.7391 122.299 48.7391 122.611 48.5578L128.391 45.2235C128.702 45.0455 128.702 44.7541 128.391 44.5728ZM135.925 40.2285L129.765 36.6773C129.454 36.496 128.945 36.496 128.634 36.6773L122.854 40.0116C122.543 40.1929 122.543 40.4843 122.854 40.6656L129.013 44.2168C129.328 44.398 129.833 44.398 130.145 44.2168L135.925 40.8857C136.239 40.7012 136.239 40.4098 135.925 40.2285ZM128.764 54.1291L122.983 57.4601C122.672 57.6414 122.163 57.6414 121.852 57.4601L115.693 53.9089C115.381 53.7277 115.381 53.4363 115.693 53.255L121.473 49.9207C121.784 49.7394 122.293 49.7394 122.604 49.9207L128.764 53.4719C129.075 53.6564 129.075 53.951 128.764 54.1291ZM136.298 49.1308L130.138 45.5796C129.827 45.3983 129.318 45.3983 129.007 45.5796L123.227 48.9107C122.915 49.092 122.915 49.3833 123.227 49.5646L129.386 53.1158C129.701 53.2971 130.206 53.2971 130.518 53.1158L136.298 49.7847C136.612 49.6035 136.612 49.3121 136.298 49.1308ZM143.835 44.7865L137.676 41.2353C137.364 41.054 136.855 41.054 136.544 41.2353L130.764 44.5664C130.449 44.7477 130.449 45.039 130.764 45.2203L136.923 48.7715C137.235 48.9528 137.744 48.9528 138.055 48.7715L143.835 45.4372C144.146 45.2591 144.146 44.9678 143.835 44.7865ZM151.369 40.4422L145.21 36.891C144.898 36.7097 144.389 36.7097 144.078 36.891L138.298 40.2253C137.984 40.4066 137.984 40.6979 138.298 40.8792L144.458 44.4304C144.769 44.6117 145.278 44.6117 145.589 44.4304L151.369 41.0993C151.68 40.9148 151.68 40.6235 151.369 40.4422ZM158.907 36.0979L152.747 32.5467C152.432 32.3654 151.927 32.3654 151.616 32.5467L145.835 35.8777C145.524 36.059 145.524 36.3504 145.835 36.5317L151.995 40.0829C152.306 40.2641 152.815 40.2641 153.126 40.0829L158.907 36.7485C159.218 36.5705 159.218 36.2791 158.907 36.0979ZM136.671 58.687L130.89 62.0214C130.576 62.2026 130.07 62.2026 129.759 62.0214L123.599 58.4701C123.285 58.2889 123.285 57.9975 123.599 57.8162L129.38 54.4851C129.691 54.3039 130.2 54.3039 130.511 54.4851L136.671 58.0364C136.982 58.2144 136.982 58.509 136.671 58.687ZM144.205 53.692L138.045 50.1408C137.731 49.9595 137.225 49.9595 136.914 50.1408L131.134 53.4751C130.822 53.6564 130.822 53.9478 131.134 54.1291L137.293 57.6803C137.604 57.8616 138.113 57.8616 138.424 57.6803L144.205 54.346C144.519 54.1647 144.519 53.8701 144.205 53.692ZM151.742 49.3477L145.582 45.7965C145.271 45.6152 144.762 45.6152 144.451 45.7965L138.671 49.1308C138.356 49.3121 138.356 49.6035 138.671 49.7847L144.83 53.3359C145.142 53.5172 145.651 53.5172 145.962 53.3359L151.742 50.0049C152.053 49.8203 152.053 49.5258 151.742 49.3477ZM159.276 45.0034L153.117 41.4522C152.802 41.2709 152.296 41.2709 151.985 41.4522L146.205 44.7833C145.894 44.9646 145.894 45.2559 146.205 45.4372L152.364 48.9884C152.676 49.1697 153.185 49.1697 153.496 48.9884L159.276 45.6541C159.591 45.476 159.591 45.1815 159.276 45.0034ZM166.813 40.6591L160.654 37.1079C160.343 36.9266 159.834 36.9266 159.522 37.1079L153.742 40.4422C153.431 40.6235 153.431 40.9148 153.742 41.0961L159.902 44.6473C160.213 44.8286 160.722 44.8286 161.033 44.6473L166.813 41.3162C167.125 41.1317 167.125 40.8371 166.813 40.6591ZM144.577 63.2482L138.797 66.5826C138.486 66.7639 137.977 66.7639 137.666 66.5826L131.506 63.0314C131.192 62.8501 131.192 62.5587 131.506 62.3774L137.287 59.0464C137.598 58.8651 138.107 58.8651 138.418 59.0464L144.577 62.5976C144.889 62.7756 144.889 63.067 144.577 63.2482ZM152.112 58.25L145.952 54.6988C145.641 54.5175 145.132 54.5175 144.821 54.6988L139.04 58.0331C138.726 58.2144 138.726 58.5057 139.04 58.687L145.2 62.2382C145.511 62.4195 146.02 62.4195 146.331 62.2382L152.112 58.9039C152.426 58.7226 152.426 58.4313 152.112 58.25ZM159.649 53.9057L153.489 50.3545C153.178 50.1732 152.669 50.1732 152.358 50.3545L146.578 53.6856C146.266 53.8668 146.266 54.1582 146.578 54.3395L152.737 57.8907C153.048 58.072 153.557 58.072 153.869 57.8907L159.649 54.5596C159.96 54.3783 159.96 54.087 159.649 53.9057ZM167.183 49.5614L161.023 46.0102C160.712 45.8289 160.203 45.8289 159.892 46.0102L154.112 49.3412C153.801 49.5225 153.801 49.8139 154.112 49.9952L160.271 53.5464C160.583 53.7277 161.091 53.7277 161.403 53.5464L167.183 50.2153C167.497 50.034 167.497 49.7427 167.183 49.5614ZM174.72 45.2171L168.561 41.6658C168.25 41.4846 167.741 41.4846 167.429 41.6658L161.649 44.9969C161.335 45.1782 161.335 45.4696 161.649 45.6508L167.809 49.202C168.12 49.3833 168.629 49.3833 168.94 49.202L174.72 45.8677C175.031 45.6897 175.031 45.3983 174.72 45.2171ZM152.494 67.8127L146.714 71.147C146.399 71.3283 145.894 71.3283 145.582 71.147L139.423 67.5958C139.112 67.4145 139.112 67.1232 139.423 66.9419L145.203 63.6076C145.514 63.4263 146.023 63.4263 146.335 63.6076L152.494 67.1588C152.809 67.3401 152.809 67.6314 152.494 67.8127ZM160.031 62.8145L153.872 59.2633C153.561 59.082 153.052 59.082 152.74 59.2633L146.96 62.5943C146.649 62.7756 146.649 63.067 146.96 63.2482L153.12 66.7995C153.431 66.9807 153.94 66.9807 154.251 66.7995L160.031 63.4684C160.346 63.2871 160.346 62.9957 160.031 62.8145ZM167.565 58.4701L161.406 54.9189C161.092 54.7377 160.586 54.7377 160.275 54.9189L154.494 58.25C154.183 58.4313 154.183 58.7226 154.494 58.9039L160.654 62.4551C160.965 62.6364 161.474 62.6364 161.785 62.4551L167.565 59.1208C167.88 58.9428 167.88 58.6514 167.565 58.4701ZM175.103 54.1258L168.943 50.5746C168.629 50.3933 168.123 50.3933 167.812 50.5746L162.032 53.9057C161.72 54.087 161.72 54.3783 162.032 54.5596L168.191 58.1108C168.502 58.2921 169.011 58.2921 169.323 58.1108L175.103 54.7797C175.414 54.5985 175.414 54.3071 175.103 54.1258ZM182.637 49.7815L176.477 46.2303C176.166 46.049 175.657 46.049 175.346 46.2303L169.566 49.5614C169.251 49.7427 169.251 50.034 169.566 50.2153L175.725 53.7665C176.036 53.9478 176.545 53.9478 176.857 53.7665L182.637 50.4322C182.951 50.2541 182.951 49.9628 182.637 49.7815Z" fill="#465266"/>
<path d="M68.4038 72.6297L50.8135 62.4876V68.2498L58.7495 74.271L68.4038 78.3887V72.6297Z" fill="#C5C0B6"/>
<path d="M83.3456 69.7746L68.4038 78.3888V72.6298L83.3456 64.0124V69.7746Z" fill="#D8D3CC"/>
<path d="M68.4038 72.6297L50.8135 62.4876L65.7552 53.8734L83.3455 64.0123L68.4038 72.6297Z" fill="#F6F2EC"/>
<path d="M67.0194 67.2365C71.2448 67.2365 74.6702 65.2625 74.6702 62.8275C74.6702 60.3924 71.2448 58.4184 67.0194 58.4184C62.794 58.4184 59.3687 60.3924 59.3687 62.8275C59.3687 65.2625 62.794 67.2365 67.0194 67.2365Z" fill="#353433"/>
<path d="M67.0193 60.4028C70.6306 60.4028 73.5581 58.7144 73.5581 56.6315C73.5581 54.5487 70.6306 52.8602 67.0193 52.8602C63.408 52.8602 60.4805 54.5487 60.4805 56.6315C60.4805 58.7144 63.408 60.4028 67.0193 60.4028Z" fill="#F6F2EC"/>
<path d="M67.0197 58.7971C69.093 58.7971 70.7737 57.8275 70.7737 56.6314C70.7737 55.4354 69.093 54.4658 67.0197 54.4658C64.9463 54.4658 63.2656 55.4354 63.2656 56.6314C63.2656 57.8275 64.9463 58.7971 67.0197 58.7971Z" fill="#353433"/>
<path d="M60.4808 56.5959V62.0473C60.4646 63.025 61.1032 64.0026 62.3967 64.7472C64.9513 66.2201 69.0911 66.2201 71.6457 64.7472C72.9068 64.0188 73.5455 63.0703 73.5617 62.1153V56.6639C73.5455 57.6188 72.9068 58.5673 71.6457 59.2957C69.0911 60.7686 64.9513 60.7686 62.3967 59.2957C61.1032 58.5512 60.4646 57.5735 60.4808 56.5959Z" fill="url(#paint2_linear_303_236)"/>
<path d="M71.2079 64.2196C70.446 64.6598 69.8301 64.3976 69.8301 63.6369V62.3808C69.8301 61.6201 70.446 60.6489 71.2079 60.2119C71.9697 59.7717 72.5857 60.0339 72.5857 60.7946V62.0506C72.5857 62.8114 71.9697 63.7825 71.2079 64.2196Z" fill="#33312D"/>
<path d="M62.6039 64.2196C63.3657 64.6598 63.9817 64.3976 63.9817 63.6369V62.3808C63.9817 61.6201 63.3657 60.6489 62.6039 60.2119C61.842 59.7717 61.2261 60.0339 61.2261 60.7946V62.0506C61.2293 62.8114 61.8453 63.7825 62.6039 64.2196Z" fill="#33312D"/>
<path d="M137.072 33.0389L119.482 22.8967V28.6589L137.072 38.8011V33.0389Z" fill="#C5C0B6"/>
<path d="M152.014 30.1868L137.072 38.801V33.0388L152.014 24.4246V30.1868Z" fill="#D8D3CC"/>
<path d="M137.072 33.0389L119.482 22.8967L134.424 14.2825L152.014 24.4247L137.072 33.0389Z" fill="#F6F2EC"/>
<path d="M135.688 27.6456C139.913 27.6456 143.339 25.6716 143.339 23.2366C143.339 20.8015 139.913 18.8275 135.688 18.8275C131.462 18.8275 128.037 20.8015 128.037 23.2366C128.037 25.6716 131.462 27.6456 135.688 27.6456Z" fill="#353433"/>
<path d="M140.314 19.708C142.868 18.2351 142.868 15.8493 140.314 14.3764C137.759 12.9034 133.619 12.9034 131.065 14.3764C128.51 15.8493 128.51 18.2351 131.065 19.708C133.616 21.1809 137.759 21.1809 140.314 19.708Z" fill="#F6F2EC"/>
<path d="M138.343 18.5717C139.809 17.7268 139.809 16.3575 138.343 15.5094C136.878 14.6644 134.498 14.6644 133.033 15.5094C131.568 16.3543 131.568 17.7236 133.033 18.5717C134.498 19.4166 136.878 19.4166 138.343 18.5717Z" fill="#353433"/>
<path d="M129.149 17.0082V22.4596C129.133 23.4373 129.772 24.4149 131.065 25.1594C133.62 26.6324 137.76 26.6324 140.314 25.1594C141.575 24.4311 142.214 23.4826 142.23 22.5276V17.0762C142.214 18.0311 141.575 18.9796 140.314 19.708C137.76 21.1809 133.62 21.1809 131.065 19.708C129.772 18.9634 129.133 17.9826 129.149 17.0082Z" fill="url(#paint3_linear_303_236)"/>
<path d="M139.876 24.6319C139.114 25.0722 138.499 24.81 138.499 24.0492V22.7932C138.499 22.0325 139.114 21.0613 139.876 20.6243C140.638 20.184 141.254 20.4462 141.254 21.207V22.463C141.254 23.2205 140.638 24.1949 139.876 24.6319Z" fill="#33312D"/>
<path d="M131.272 24.6319C132.034 25.0722 132.65 24.81 132.65 24.0492V22.7932C132.65 22.0325 132.034 21.0613 131.272 20.6243C130.51 20.184 129.895 20.4462 129.895 21.207V22.463C129.895 23.2205 130.514 24.1949 131.272 24.6319Z" fill="#33312D"/>
<path d="M192.022 99.8384L181.126 106.122C180.5 106.484 179.991 106.268 179.991 105.643V104.131C179.991 103.506 180.5 102.707 181.126 102.344L192.022 96.0606C192.647 95.6981 193.156 95.915 193.156 96.5397V98.0515C193.156 98.6795 192.651 99.4791 192.022 99.8384Z" fill="#C4E5E8"/>
<path d="M197.604 96.6208L195.273 97.9642C194.648 98.3268 194.139 98.1099 194.139 97.4851V95.9733C194.139 95.3485 194.648 94.549 195.273 94.1864L197.604 92.8429C198.23 92.4836 198.739 92.6973 198.739 93.322V94.8338C198.739 95.4618 198.23 96.2614 197.604 96.6208Z" fill="#BF4806"/>
<path d="M124.514 138.762L135.409 132.479C136.035 132.12 136.544 131.317 136.544 130.692V129.18C136.544 128.556 136.035 128.342 135.409 128.701L124.514 134.985C123.888 135.347 123.379 136.147 123.379 136.772V138.283C123.379 138.908 123.885 139.122 124.514 138.762Z" fill="#C4E5E8"/>
<path d="M118.931 141.977L121.262 140.634C121.888 140.274 122.397 139.472 122.397 138.847V137.335C122.397 136.71 121.888 136.497 121.262 136.856L118.931 138.199C118.305 138.562 117.796 139.362 117.796 139.986V141.498C117.796 142.126 118.305 142.34 118.931 141.977Z" fill="#BF4806"/>
<defs>
<linearGradient id="paint0_linear_303_236" x1="151.847" y1="98.5918" x2="159.832" y2="112.442" gradientUnits="userSpaceOnUse">
<stop stop-color="#F0ECE6"/>
<stop offset="0.5241" stop-color="#E1DCD6"/>
<stop offset="1" stop-color="#D8D3CC"/>
</linearGradient>
<linearGradient id="paint1_linear_303_236" x1="20.757" y1="48.1828" x2="158.206" y2="69.226" gradientUnits="userSpaceOnUse">
<stop stop-color="#9C9A96"/>
<stop offset="1" stop-color="#C3C0BA"/>
</linearGradient>
<linearGradient id="paint2_linear_303_236" x1="59.243" y1="61.2248" x2="74.2515" y2="61.2248" gradientUnits="userSpaceOnUse">
<stop stop-color="#C5C0B6"/>
<stop offset="1" stop-color="#D8D3CC"/>
</linearGradient>
<linearGradient id="paint3_linear_303_236" x1="127.911" y1="21.6358" x2="142.92" y2="21.6358" gradientUnits="userSpaceOnUse">
<stop stop-color="#C5C0B6"/>
<stop offset="1" stop-color="#D8D3CC"/>
</linearGradient>
</defs>
</svg>
