<svg width="66" height="173" viewBox="0 0 66 173" fill="none" xmlns="http://www.w3.org/2000/svg">
<path d="M6.45923 173L66.0001 138.608V97.7996L6.45923 132.192V173Z" fill="#D8D3CC"/>
<path d="M6.45923 173L66.0001 138.608V132.192L42.3376 145.859L28.5683 135.663L6.45923 148.433V173Z" fill="#62B74E"/>
<path d="M0 169.269L6.45918 173V132.192L0 128.459V169.269Z" fill="#C5C0B6"/>
<path d="M0 169.269L6.45918 173V148.447L0 144.716V169.269Z" fill="#52A93C"/>
<path d="M6.45918 132.192L66 97.7995L59.539 94.0684L0 128.459L6.45918 132.192Z" fill="#F0ECE6"/>
<path opacity="0.7" d="M4.42464 129.636L3.51172 129.108V33.3409L4.42464 33.8684V129.636Z" fill="#497E7B"/>
<path opacity="0.2" d="M62.1467 96.2949L4.42456 129.636V33.8683L62.1467 0.527405V96.2949Z" fill="#8DD7D3"/>
<path opacity="0.7" d="M4.42464 33.8683L3.51172 33.3409L61.2339 0L62.1467 0.527457L4.42464 33.8683Z" fill="#A6CFCD"/>
<path d="M44.3242 56.8178C44.5701 56.6673 44.8072 56.5027 45.0673 56.3823C45.4123 54 45.6688 51.5079 45.6829 50.8211C45.7502 47.4405 45.3309 45.1554 42.3357 44.6315C41.3167 44.4528 38.5904 44.251 35.3582 47.0546C41.069 43.759 44.6232 45.805 44.3242 56.8178Z" fill="#719020"/>
<path d="M41.2441 32.6931C39.9384 31.2063 38.6841 30.8541 36.6585 27.47C33.8207 34.0454 35.9472 36.8384 36.807 37.603C38.2613 38.8969 41.3343 38.0225 42.5568 38.8119C42.6116 38.2119 43.7138 35.5056 41.2441 32.6931Z" fill="#A2BA3F"/>
<path d="M43.0823 37.3109C42.8664 37.1499 42.6241 37.0065 42.3623 36.8295C41.5325 36.2719 40.1437 35.7463 39.0468 34.81C38.4082 34.2648 36.9947 32.9179 36.8567 29.6664C36.4002 33.9533 38.325 35.5463 42.0579 37.649C42.5144 37.9057 42.8169 38.1286 43.0203 38.3251L43.0823 37.3109Z" fill="#B3C94B"/>
<path d="M43.9244 41.3323C43.843 41.442 43.7952 41.596 43.6678 41.6473C43.0804 41.8862 44.2286 37.1534 44.4622 36.4507C46.1022 31.5284 51.3671 26.6097 51.4609 21.0927C51.8537 26.9389 46.4454 31.3744 45.2335 36.8879C44.5382 40.0543 45.1858 39.6296 43.9244 41.3323Z" fill="#88A72B"/>
<path d="M57.9821 37.6224C57.8176 36.2489 56.7756 32.8612 54.1501 33.3514C53.4478 33.4824 48.0625 37.6064 47.8573 38.0118C47.4663 38.7781 46.3906 40.3357 46.7108 40.695C47.001 41.0224 47.5282 41.1251 47.9085 41.3039C48.2907 41.4844 48.6587 41.7464 49.085 41.8313C49.4088 41.8968 49.7962 39.8932 50.1837 39.7003C50.6879 39.449 53.8334 35.7409 57.9821 37.6224Z" fill="#719020"/>
<path d="M46.7621 52.8157C46.6011 53.3679 46.8576 53.1219 46.3162 53.4157C45.7306 53.7343 45.7979 53.3484 45.7837 52.8386C45.7589 51.9678 45.6068 45.9305 46.1534 41.0223C46.325 39.486 47.0539 37.7886 48.1597 36.5974C50.357 34.2292 53.3875 33.1584 55.185 33.3318C50.3393 36.431 47.2875 51.0156 46.7621 52.8157Z" fill="#A2BA3F"/>
<path d="M46.9656 57.0423C46.4685 57.9397 45.7449 55.8228 45.6405 55.2281C45.3805 53.7449 46.7091 40.6985 50.6543 34.5284C50.6543 34.5284 50.9427 34.3213 50.9533 34.4328C45.1328 46.3588 46.9656 57.0423 46.9656 57.0423Z" fill="#B3C94B"/>
<path d="M43.9244 59.9824L48.1032 57.5699C46.9691 45.8722 47.0629 44.5164 43.3441 36.4259C41.7059 32.863 43.7723 26.7353 45.9182 21.6768C47.9457 16.8979 48.6427 13.4925 47.047 12.1101C48.4534 14.7013 46.196 19.5546 44.3137 23.6503C42.2154 28.2132 40.2871 34.5374 42.3464 38.8136C45.5167 45.3908 44.3791 56.469 43.9244 59.9824Z" fill="#88A72B"/>
<path d="M56.0005 54.9468L37.3359 65.7277V63.2586L56.0005 52.4777V54.9468Z" fill="#6B4932"/>
<path d="M56.0005 62.9417L37.3359 73.7226V65.5472L56.0005 54.7663V62.9417Z" fill="#4C3526"/>
<path d="M56.0005 66.4214L37.3359 77.2023V73.3703L56.0005 62.5894V66.4214Z" fill="#826B29"/>
<path d="M56.0005 67.4639L37.3359 78.2448V77.0394L56.0005 66.2585V67.4639Z" fill="#3384A3"/>
<path d="M30.5973 39.1269C30.5973 39.2101 30.5301 39.3162 30.4469 39.3658L30.3337 39.4313C30.2506 39.4791 30.1833 39.4508 30.1833 39.3676C30.1833 39.2844 30.2506 39.1782 30.3337 39.1287L30.4469 39.0631C30.5301 39.0154 30.5973 39.0437 30.5973 39.1269ZM16.9784 46.8422L16.7519 46.9731C16.6688 47.0209 16.6016 47.1289 16.6016 47.2121C16.6016 47.2953 16.6688 47.3236 16.7519 47.2758L16.9784 47.1448C17.0615 47.097 17.1288 46.9891 17.1288 46.9059C17.1288 46.8227 17.0615 46.7944 16.9784 46.8422ZM19.2411 45.5342L19.0146 45.6651C18.9315 45.7129 18.8643 45.8209 18.8643 45.904C18.8643 45.9872 18.9315 46.0156 19.0146 45.9678L19.2411 45.8368C19.3243 45.789 19.3915 45.6811 19.3915 45.5979C19.3933 45.5147 19.3243 45.4864 19.2411 45.5342ZM18.1106 46.189L17.8842 46.32C17.8011 46.3678 17.7338 46.4758 17.7338 46.559C17.7338 46.6422 17.8011 46.6705 17.8842 46.6227L18.1106 46.4917C18.1938 46.4439 18.261 46.336 18.261 46.2528C18.261 46.1696 18.1938 46.1412 18.1106 46.189ZM14.7138 48.1502L14.4874 48.2811C14.4043 48.3289 14.337 48.4351 14.337 48.5201C14.337 48.6033 14.4043 48.6316 14.4874 48.5838L14.7138 48.4528C14.797 48.405 14.866 48.2989 14.866 48.2139C14.866 48.1307 14.797 48.1024 14.7138 48.1502ZM15.8461 47.4953L15.6196 47.6263C15.5365 47.6741 15.4693 47.7802 15.4693 47.8652C15.4693 47.9484 15.5365 47.9767 15.6196 47.9289L15.8461 47.7979C15.9293 47.7501 15.9965 47.6422 15.9965 47.559C15.9965 47.4758 15.9293 47.4475 15.8461 47.4953ZM10.1884 50.7644L9.96189 50.8954C9.87874 50.9432 9.81153 51.0511 9.81153 51.1343C9.81153 51.2175 9.87874 51.2459 9.96189 51.1981L10.1884 51.0671C10.2715 51.0193 10.3387 50.9113 10.3387 50.8281C10.3387 50.7449 10.2715 50.7166 10.1884 50.7644ZM11.3188 50.1113L11.0924 50.2423C11.0092 50.2901 10.942 50.398 10.942 50.4812C10.942 50.5644 11.0092 50.5927 11.0924 50.5449L11.3188 50.4139C11.402 50.3661 11.4692 50.2582 11.4692 50.175C11.471 50.0918 11.4037 50.0635 11.3188 50.1113ZM12.4511 49.4564L12.2247 49.5874C12.1415 49.6352 12.0743 49.7413 12.0743 49.8263C12.0743 49.9095 12.1415 49.9378 12.2247 49.89L12.4511 49.759C12.5343 49.7113 12.6015 49.605 12.6015 49.5201C12.6015 49.4369 12.5343 49.4086 12.4511 49.4564ZM13.5833 48.8033L13.3569 48.9342C13.2738 48.982 13.2065 49.0882 13.2065 49.1732C13.2065 49.2564 13.2738 49.2847 13.3569 49.2369L13.5833 49.106C13.6665 49.0582 13.7338 48.9519 13.7338 48.867C13.7338 48.7838 13.6665 48.7555 13.5833 48.8033ZM20.3734 44.8811L20.1469 45.012C20.0638 45.0598 19.9965 45.166 19.9965 45.251C19.9965 45.3341 20.0638 45.3625 20.1469 45.3147L20.3734 45.1837C20.4565 45.1359 20.5237 45.0279 20.5237 44.9447C20.5237 44.8616 20.4565 44.8333 20.3734 44.8811ZM27.1634 40.9588L26.9369 41.0898C26.8538 41.1376 26.7865 41.2455 26.7865 41.3287C26.7865 41.4119 26.8538 41.4402 26.9369 41.3924L27.1634 41.2615C27.2465 41.2137 27.3138 41.1074 27.3138 41.0225C27.3155 40.9393 27.2465 40.911 27.1634 40.9588ZM23.7684 42.9199L23.5419 43.0509C23.4588 43.0987 23.3915 43.2066 23.3915 43.2898C23.3915 43.373 23.4588 43.4014 23.5419 43.3536L23.7684 43.2226C23.8515 43.1748 23.9187 43.0686 23.9187 42.9836C23.9187 42.9004 23.8515 42.8721 23.7684 42.9199ZM28.2956 40.3057L28.0692 40.4366C27.986 40.4844 27.9188 40.5906 27.9188 40.6756C27.9188 40.7588 27.986 40.7871 28.0692 40.7393L28.2956 40.6084C28.3788 40.5606 28.446 40.4544 28.446 40.3694C28.446 40.2862 28.3788 40.2561 28.2956 40.3057ZM24.9006 42.2668L24.6742 42.3978C24.591 42.4456 24.5238 42.5518 24.5238 42.6367C24.5238 42.7199 24.591 42.7482 24.6742 42.7004L24.9006 42.5695C24.9838 42.5217 25.051 42.4155 25.051 42.3305C25.051 42.2473 24.9838 42.2172 24.9006 42.2668ZM21.5057 44.2279L21.2792 44.3589C21.196 44.4067 21.1288 44.5129 21.1288 44.5979C21.1288 44.681 21.196 44.7093 21.2792 44.6615L21.5057 44.5306C21.5888 44.4828 21.656 44.3766 21.656 44.2916C21.656 44.2085 21.5888 44.1783 21.5057 44.2279ZM29.4279 39.6508L29.2014 39.7818C29.1183 39.8296 29.0511 39.9375 29.0511 40.0207C29.0511 40.1039 29.1183 40.1322 29.2014 40.0844L29.4279 39.9534C29.5111 39.9056 29.5783 39.7977 29.5783 39.7145C29.5783 39.6313 29.5111 39.603 29.4279 39.6508ZM26.0311 41.6119L25.8047 41.7429C25.7215 41.7907 25.6543 41.8987 25.6543 41.9819C25.6543 42.065 25.7215 42.0933 25.8047 42.0455L26.0311 41.9145C26.1143 41.8668 26.1815 41.7588 26.1815 41.6756C26.1832 41.5925 26.116 41.5641 26.0311 41.6119ZM22.6379 43.573L22.4114 43.704C22.3283 43.7518 22.2611 43.858 22.2611 43.943C22.2611 44.0262 22.3283 44.0544 22.4114 44.0067L22.6379 43.8757C22.721 43.8279 22.7882 43.72 22.7882 43.6368C22.7882 43.5536 22.721 43.5252 22.6379 43.573ZM8.94288 51.3697C8.85973 51.4175 8.79251 51.5237 8.79251 51.6087V51.722C8.79251 51.8051 8.85973 51.8335 8.94288 51.7857L9.05609 51.7202C9.13924 51.6724 9.20646 51.5644 9.20646 51.4812C9.20646 51.4086 9.15696 51.3786 9.08973 51.4016C9.07381 51.345 9.01364 51.329 8.94288 51.3697ZM8.94288 47.4015C9.02603 47.3537 9.09324 47.2457 9.09324 47.1625V46.9377C9.09324 46.8545 9.02603 46.8262 8.94288 46.874C8.85973 46.9218 8.79251 47.0298 8.79251 47.113V47.3378C8.79074 47.421 8.85973 47.4492 8.94288 47.4015ZM8.94288 41.7801C9.02603 41.7323 9.09324 41.626 9.09324 41.5411V41.3163C9.09324 41.2331 9.02603 41.2048 8.94288 41.2526C8.85973 41.3004 8.79251 41.4084 8.79251 41.4916V41.7163C8.79074 41.8013 8.85973 41.8296 8.94288 41.7801ZM8.94288 48.5254C9.02603 48.4776 9.09324 48.3696 9.09324 48.2864V48.0617C9.09324 47.9785 9.02603 47.9502 8.94288 47.9979C8.85973 48.0457 8.79251 48.1537 8.79251 48.2369V48.4617C8.79074 48.5448 8.85973 48.5732 8.94288 48.5254ZM8.94288 44.0297C9.02603 43.9819 9.09324 43.8739 9.09324 43.7907V43.566C9.09324 43.4828 9.02603 43.4544 8.94288 43.5022C8.85973 43.55 8.79251 43.658 8.79251 43.7412V43.966C8.79074 44.0492 8.85973 44.0775 8.94288 44.0297ZM8.94288 45.1536C9.02603 45.1058 9.09324 44.9996 9.09324 44.9147V44.6899C9.09324 44.6067 9.02603 44.5784 8.94288 44.6262C8.85973 44.6739 8.79251 44.7819 8.79251 44.8651V45.0899C8.79074 45.1731 8.85973 45.2014 8.94288 45.1536ZM8.94288 49.6493C9.02603 49.6016 9.09324 49.4936 9.09324 49.4104V49.1856C9.09324 49.1024 9.02603 49.0741 8.94288 49.1219C8.85973 49.1697 8.79251 49.2776 8.79251 49.3608V49.5856C8.79074 49.6688 8.85973 49.6971 8.94288 49.6493ZM8.94288 46.2776C9.02603 46.2298 9.09324 46.1218 9.09324 46.0386V45.8138C9.09324 45.7306 9.02603 45.7023 8.94288 45.7501C8.85973 45.7979 8.79251 45.9041 8.79251 45.989V46.2138C8.79074 46.297 8.85973 46.3253 8.94288 46.2776ZM8.94288 50.7732C9.02603 50.7254 9.09324 50.6175 9.09324 50.5343V50.3095C9.09324 50.2263 9.02603 50.198 8.94288 50.2458C8.85973 50.2936 8.79251 50.4016 8.79251 50.4847V50.7096C8.79074 50.7927 8.85973 50.821 8.94288 50.7732ZM8.94288 42.9057C9.02603 42.8579 9.09324 42.75 9.09324 42.6668V42.442C9.09324 42.3588 9.02603 42.3305 8.94288 42.3783C8.85973 42.4261 8.79251 42.534 8.79251 42.6172V42.842C8.79074 42.9252 8.85973 42.9535 8.94288 42.9057ZM8.94288 40.6579C9.02603 40.6101 9.09324 40.5039 9.09324 40.4189V40.1942C9.09324 40.111 9.02603 40.0826 8.94288 40.1304C8.85973 40.1782 8.79251 40.2844 8.79251 40.3694V40.5941C8.79074 40.6756 8.85973 40.7057 8.94288 40.6579ZM8.94288 39.5322C9.02603 39.4844 9.09324 39.3764 9.09324 39.2933V39.0684C9.09324 38.9853 9.02603 38.957 8.94288 39.0048C8.85973 39.0525 8.79251 39.1605 8.79251 39.2437V39.4685C8.79074 39.5517 8.85973 39.5818 8.94288 39.5322ZM8.94288 38.4083C9.02603 38.3605 9.09324 38.2525 9.09324 38.1693V37.9445C9.09324 37.8614 9.02603 37.833 8.94288 37.8808C8.85973 37.9286 8.79251 38.0366 8.79251 38.1198V38.3445C8.79074 38.4295 8.85973 38.4578 8.94288 38.4083ZM8.94288 37.2843C9.02603 37.2365 9.09324 37.1286 9.09324 37.0454V36.8206C9.09324 36.7374 9.02603 36.7091 8.94288 36.7569C8.85973 36.8047 8.79251 36.9126 8.79251 36.9958V37.2206C8.79074 37.3038 8.85973 37.3339 8.94288 37.2843ZM26.9935 31.0098L25.7587 31.7231V41.0969L26.9935 40.3835V31.0098ZM27.7861 39.9269L29.021 39.2136V29.0345L27.7861 29.7478V39.9269ZM25.0085 37.4206L23.7737 38.1339V42.2438L25.0085 41.5305V37.4206ZM21.7887 43.3907L23.0236 42.6774V39.2508L21.7887 39.9641V43.3907ZM19.8037 44.5377L21.0386 43.8244V36.4684L19.8037 37.1817V44.5377ZM19.0536 40.3535L17.8187 41.0668V45.6846L19.0536 44.9713V40.3535ZM17.0668 39.7995L15.832 40.5127V46.8315L17.0668 46.1182V39.7995ZM13.847 47.9785L15.0818 47.2652V44.543L13.847 45.2562V47.9785ZM11.862 49.1254L13.0968 48.4121V43.127L11.862 43.8403V49.1254ZM11.1101 44.9996L9.87523 45.7129V50.2724L11.1101 49.559V44.9996Z" fill="white"/>
<path d="M38.47 95.0011C36.8902 95.9144 35.604 97.9427 35.604 99.5233C35.604 101.104 36.8902 101.647 38.47 100.736C40.0499 99.8224 41.336 97.7941 41.336 96.2135C41.336 94.6329 40.0499 94.0878 38.47 95.0011ZM38.47 100.343C37.1042 101.132 35.995 100.663 35.995 99.2968C35.995 97.9286 37.1025 96.1817 38.47 95.3922C39.8358 94.6028 40.945 95.0719 40.945 96.4383C40.945 97.8065 39.8376 99.5534 38.47 100.343Z" fill="white"/>
<path d="M47.3724 89.8594C45.7926 90.7727 44.5063 92.8011 44.5063 94.3817C44.5063 95.9623 45.7926 96.5056 47.3724 95.5941C48.9523 94.6826 50.2384 92.6524 50.2384 91.0718C50.2384 89.4895 48.9523 88.9461 47.3724 89.8594ZM47.3724 95.2012C46.0066 95.9906 44.8973 95.5215 44.8973 94.1551C44.8973 92.7887 46.0049 91.04 47.3724 90.2506C48.7382 89.4612 49.8474 89.9302 49.8474 91.2967C49.8474 92.6631 48.74 94.4118 47.3724 95.2012Z" fill="#F4BE4A"/>
<path d="M56.2747 84.7158C54.6949 85.6291 53.4087 87.6575 53.4087 89.238C53.4087 90.8186 54.6949 91.362 56.2747 90.4505C57.8546 89.5372 59.1407 87.5088 59.1407 85.9282C59.1407 84.3476 57.8563 83.8043 56.2747 84.7158ZM56.2747 90.0593C54.9089 90.8488 53.7997 90.3797 53.7997 89.0133C53.7997 87.6451 54.9072 85.8982 56.2747 85.1088C57.6423 84.3194 58.7498 84.7884 58.7498 86.1548C58.7498 87.5212 57.6423 89.2699 56.2747 90.0593Z" fill="#CE0A40"/>
<path d="M13.1534 107.009L8.00513 109.982V108.89L13.1534 105.916V107.009Z" fill="white"/>
<path d="M8.00513 110.918V112.012L24.6989 102.37V101.276L8.00513 110.918Z" fill="#CE0A40"/>
<path d="M31.434 100.507L8.00513 114.041V112.949L31.434 99.4154V100.507Z" fill="white"/>
<path d="M29.5622 103.619L8.00513 116.071V114.977L29.5622 102.527V103.619Z" fill="white"/>
<path d="M27.4304 106.879L8.00513 118.099V117.007L27.4304 105.787V106.879Z" fill="#F4BE4A"/>
<path d="M14.445 78.9262L12.8332 73.388C11.4622 74.5225 10.344 75.8536 9.41523 77.4572C8.30244 79.3811 7.78052 81.0785 7.78052 82.7759C7.78052 83.3387 7.84244 83.806 7.97866 84.2751C8.08127 84.6273 8.22639 84.9529 8.40508 85.2344C9.24189 86.5459 10.6023 86.9442 12.4971 86.4291C15.2039 85.6928 17.955 83.2378 19.6976 79.9988L14.445 78.9262Z" fill="white"/>
<path d="M14.445 72.2606C13.8824 72.5863 13.3799 72.9385 12.8333 73.3898L14.445 78.928L18.1708 71.2481C16.9996 71.1331 15.8585 71.4446 14.445 72.2606Z" fill="#F4BE4A"/>
<path d="M20.9856 73.8765C20.7698 72.8924 20.3345 72.2074 19.6233 71.7401C19.1793 71.4481 18.7565 71.3047 18.1709 71.248L14.4451 78.928L19.6959 79.9988C20.9148 77.7332 21.3642 75.6022 20.9856 73.8765Z" fill="#CE0A40"/>
<path d="M13.3286 80.7033C13.3286 80.79 13.318 81.0024 13.2206 81.2396C13.1233 81.4803 12.9376 81.7476 12.6032 81.9405C12.2582 82.1387 12.0849 82.0803 11.9876 81.9529C11.8903 81.829 11.8796 81.629 11.8796 81.5423V79.3935C11.8796 79.2643 11.8849 79.0307 11.9822 78.7847C12.0795 78.5422 12.2547 78.282 12.6032 78.082C12.9535 77.8802 13.1269 77.9386 13.2242 78.0678C13.3215 78.2024 13.3268 78.4307 13.3268 78.5581V78.7953L12.7713 79.1156C12.7713 78.8643 12.766 78.7015 12.7465 78.6165C12.7253 78.5316 12.6846 78.5191 12.6032 78.5652C12.536 78.6041 12.49 78.6607 12.4688 78.7404C12.444 78.8218 12.4334 78.9316 12.4334 79.075V79.7493C12.5307 79.636 12.6138 79.5528 12.7111 79.4962C12.9995 79.3298 13.1534 79.39 13.2348 79.5121C13.3179 79.6342 13.3268 79.8343 13.3268 79.9369V80.7033H13.3286ZM12.4334 81.3848C12.4334 81.4308 12.4741 81.5299 12.6032 81.4556C12.7217 81.3865 12.7731 81.2343 12.7731 81.1883V80.0573C12.7731 80.0113 12.7217 79.9174 12.6032 79.9865C12.4847 80.0555 12.4387 80.1794 12.4334 80.2396V81.3848Z" fill="black"/>
<path d="M13.5337 78.4005V78.0465C13.7655 77.866 13.9035 77.6678 14.0008 77.5085C14.0521 77.4164 14.0928 77.3262 14.1246 77.2412L14.459 77.0483V80.8272L13.9035 81.1475V78.1864L13.5337 78.4005Z" fill="black"/>
<path d="M15.5983 77.8819C15.593 78.0536 15.5311 78.2076 15.4285 78.3545C15.3772 78.4306 15.2993 78.4961 15.202 78.5527C14.9968 78.6713 14.9049 78.6218 14.8482 78.5368C14.8182 78.4926 14.8022 78.4306 14.8022 78.3421V77.2465C14.8022 77.0819 14.8641 76.9332 14.972 76.7792C15.0234 76.7031 15.1012 76.6377 15.2038 76.5793C15.4037 76.4642 15.4922 76.5262 15.5488 76.6023C15.5789 76.6465 15.5948 76.7084 15.6001 76.7881V77.8819H15.5983ZM15.0588 80.4802L16.4458 75.8996L16.7748 75.7102L15.4038 80.2803L15.0588 80.4802ZM15.2905 76.9651C15.2905 76.9191 15.2746 76.8872 15.2551 76.8677C15.1472 76.9102 15.1313 76.9545 15.1171 76.9987C15.1118 77.0678 15.1118 78.1634 15.1118 78.1634C15.1065 78.2235 15.1171 78.2996 15.2038 78.2483C15.2817 78.2041 15.2905 78.1156 15.2905 78.0589V76.9651ZM17.042 78.9386C17.0367 79.112 16.9747 79.2607 16.8721 79.4059C16.8208 79.482 16.743 79.5475 16.6457 79.6041C16.4405 79.7227 16.3484 79.6678 16.2918 79.5935C16.2618 79.5493 16.2458 79.4873 16.2458 79.3988V78.3032C16.2458 78.1386 16.3078 77.9846 16.4157 77.8306C16.467 77.7545 16.5449 77.689 16.6475 77.6306C16.8474 77.5156 16.9358 77.5775 16.9924 77.6518C17.0225 77.7014 17.0385 77.7633 17.0438 77.843V78.9386H17.042ZM16.7341 78.0218C16.7341 77.9758 16.7182 77.9439 16.6988 77.9244C16.5908 77.9669 16.5749 78.0111 16.559 78.0554C16.5537 78.1244 16.5537 79.2201 16.5537 79.2201C16.5484 79.2802 16.5643 79.3015 16.5891 79.3174C16.6917 79.2838 16.7076 79.2395 16.7235 79.1935C16.7342 79.1174 16.7341 78.0218 16.7341 78.0218Z" fill="black"/>
<path d="M19.6233 56.7645C19.1793 56.4725 18.7565 56.3291 18.1709 56.2725L14.4451 63.9524L20.9874 58.9027C20.7698 57.915 20.3345 57.2318 19.6233 56.7645Z" fill="#CE0A40"/>
<path d="M14.445 57.2849C13.8824 57.6105 13.3799 57.9628 12.8332 58.4141C11.4622 59.5487 10.344 60.8796 9.41523 62.4832C8.30244 64.4072 7.78052 66.1046 7.78052 67.802L14.445 63.9523L18.1708 56.2724C16.9996 56.1574 15.8585 56.4689 14.445 57.2849Z" fill="#F4BE4A"/>
<path d="M20.9855 58.9009L14.4432 63.9506L7.77881 67.8002C7.77881 68.3631 7.84073 68.8304 7.97695 69.2994C8.07956 69.6517 8.22463 69.9773 8.40331 70.2587C9.24012 71.5703 10.6006 71.9686 12.4953 71.4535C15.2021 70.719 17.9532 68.2622 19.6958 65.0232C20.9148 62.7576 21.3641 60.6266 20.9855 58.9009Z" fill="white"/>
<path d="M11.7366 64.4479V64.0921C11.9683 63.9115 12.1081 63.7116 12.2054 63.5523C12.2567 63.4602 12.2991 63.3699 12.3292 63.285L12.6654 63.0921V66.8869L12.1081 67.209V64.2355L11.7366 64.4479Z" fill="black"/>
<path d="M13.9551 64.3434C13.9551 64.1823 13.8985 64.0974 13.78 64.1665C13.718 64.2019 13.6667 64.2779 13.626 64.3593C13.5853 64.4461 13.5641 64.5293 13.5641 64.5718L13.0935 64.8426V62.8443L14.4398 62.0655V62.6177L13.573 63.1186V63.9081C13.6349 63.8266 13.7021 63.747 13.78 63.6762C13.8153 63.639 13.8578 63.6107 13.8932 63.5948C14.1815 63.4284 14.3372 63.5027 14.4204 63.6372C14.5035 63.77 14.5124 63.9611 14.5124 64.0231V64.8691C14.5124 65.0497 14.5018 65.2975 14.4045 65.5559C14.3072 65.8178 14.1214 66.0851 13.7852 66.2798C13.4403 66.4798 13.2651 66.4214 13.166 66.2497C13.0687 66.0851 13.0581 65.8072 13.0581 65.5541L13.6154 65.232V65.3824C13.6154 65.5736 13.626 65.701 13.6508 65.7594C13.6773 65.8214 13.718 65.8338 13.7852 65.7966C13.8419 65.763 13.8896 65.701 13.9144 65.6143C13.9409 65.5276 13.9551 65.3842 13.9551 65.193V64.3434Z" fill="black"/>
<path d="M15.5845 62.9009C15.5792 63.0744 15.5172 63.2283 15.4146 63.377C15.3633 63.4531 15.2855 63.5186 15.1882 63.5752C14.9812 63.6956 14.8892 63.6443 14.8326 63.5593C14.8008 63.5151 14.7866 63.4514 14.7866 63.3646V62.2655C14.7866 62.1009 14.8485 61.9504 14.9564 61.7947C15.0077 61.7186 15.0856 61.6531 15.1882 61.5929C15.3899 61.4761 15.4766 61.5398 15.5332 61.6159C15.565 61.6601 15.5792 61.7239 15.5845 61.8018V62.9009ZM15.0431 65.5116L16.4372 60.9114L16.7681 60.7203L15.3899 65.3098L15.0431 65.5116ZM15.2749 61.9805C15.2749 61.9345 15.259 61.9026 15.2395 61.8832C15.1316 61.9256 15.1157 61.9699 15.0998 62.0159C15.0945 62.085 15.0944 63.1858 15.0944 63.1858C15.0891 63.246 15.0997 63.3222 15.1882 63.2726C15.266 63.2283 15.2749 63.1398 15.2749 63.0814V61.9805ZM17.0352 63.9629C17.0299 64.1363 16.968 64.2868 16.8654 64.4337C16.814 64.5098 16.7362 64.5753 16.6389 64.6319C16.4319 64.7505 16.3399 64.6956 16.2833 64.6213C16.2514 64.577 16.2373 64.5133 16.2373 64.4248V63.3257C16.2373 63.1611 16.2992 63.0053 16.4071 62.8496C16.4584 62.7734 16.5363 62.708 16.6389 62.6478C16.8406 62.531 16.9273 62.5947 16.9839 62.6708C17.014 62.7204 17.0299 62.7841 17.0352 62.8637V63.9629ZM16.7256 63.0425C16.7256 62.9965 16.7097 62.9646 16.6902 62.9452C16.5823 62.9876 16.5664 63.0319 16.5504 63.0761C16.5451 63.1469 16.5451 64.2461 16.5451 64.2461C16.5398 64.3062 16.5557 64.3292 16.5805 64.3452C16.6831 64.3115 16.6991 64.2655 16.715 64.2213C16.7256 64.1416 16.7256 63.0425 16.7256 63.0425Z" fill="black"/>
<path d="M14.4415 93.9036L8.40161 100.21C9.23842 101.522 10.5989 101.92 12.4936 101.405C15.2004 100.67 17.9515 98.2135 19.6923 94.9744L14.4415 93.9036Z" fill="white"/>
<path d="M14.4414 87.238C13.8788 87.5636 13.3764 87.9159 12.8297 88.3672C11.4586 89.5017 10.3405 90.8327 9.41347 92.4363C8.30067 94.3603 7.77881 96.0577 7.77881 97.7551C7.77881 98.3179 7.84073 98.7852 7.97695 99.2543C8.07956 99.6065 8.22463 99.9321 8.40331 100.214L14.4432 93.9071L18.169 86.2273C16.9961 86.1105 15.855 86.4202 14.4414 87.238Z" fill="#F4BE4A"/>
<path d="M20.9837 88.854C20.7678 87.8681 20.3326 87.1849 19.6214 86.7176C19.1774 86.4256 18.7545 86.2822 18.1689 86.2255L14.4431 93.9054L19.6939 94.9762C20.9111 92.7107 21.3605 90.5797 20.9837 88.854Z" fill="#CE0A40"/>
<path d="M12.2885 95.4169V94.9532C12.5202 94.8045 12.6282 94.6966 12.6742 94.5621C12.6989 94.4966 12.7095 94.4223 12.7095 94.3408C12.7095 94.2576 12.7095 94.155 12.7095 94.0381C12.7095 93.9302 12.7095 93.8116 12.6883 93.7266C12.6671 93.6417 12.6211 93.601 12.5344 93.6505C12.4672 93.6895 12.4265 93.7443 12.4052 93.8541C12.3805 93.9726 12.3699 94.1372 12.3699 94.3886L11.825 94.7037C11.825 94.493 11.8302 94.2028 11.9222 93.9178C12.0142 93.6381 12.1841 93.3656 12.5344 93.1638C12.8847 92.962 13.0633 93.0381 13.1571 93.1744C13.2491 93.3107 13.2545 93.5142 13.2545 93.5603C13.2545 94.1196 13.1571 94.4435 12.9873 94.7125C13.2491 94.7762 13.3005 95.1373 13.3005 95.5745C13.3005 95.5904 13.3004 95.6258 13.2951 95.686C13.2898 95.7975 13.2597 95.9745 13.2031 96.171C13.1412 96.371 13.0386 96.5798 12.8794 96.7586C12.798 96.8524 12.6989 96.9285 12.5822 96.9975C12.2319 97.1993 12.0532 97.1285 11.9559 96.9533C11.8586 96.7834 11.848 96.5019 11.848 96.2913L12.3929 95.9762C12.3929 96.2276 12.4088 96.378 12.4389 96.4577C12.4707 96.5426 12.5167 96.5462 12.5822 96.509C12.6689 96.4577 12.7166 96.3657 12.7361 96.2612C12.7573 96.1568 12.7573 96.0382 12.7573 95.9302C12.7573 95.8116 12.7573 95.7037 12.7626 95.6028C12.7626 95.4169 12.7272 95.3108 12.6087 95.3001C12.5468 95.3001 12.4548 95.3285 12.3362 95.3904L12.2885 95.4169Z" fill="black"/>
<path d="M14.2752 92.7461L13.4419 93.2274V92.677L14.8395 91.8699V92.4257L14.284 95.9691L13.709 96.3019L14.2752 92.7461Z" fill="black"/>
<path d="M15.8374 92.7849C15.8321 92.9584 15.7702 93.1107 15.6675 93.2576C15.6162 93.3337 15.5384 93.3992 15.4411 93.4558C15.2359 93.5744 15.1421 93.5248 15.0873 93.4399C15.0554 93.3956 15.0413 93.3336 15.0413 93.2451V92.1496C15.0413 91.985 15.1032 91.8363 15.2111 91.6823C15.2624 91.6062 15.3403 91.5407 15.4429 91.4823C15.6428 91.3672 15.7313 91.4292 15.7861 91.5053C15.8162 91.5495 15.8321 91.6115 15.8374 91.6911V92.7849ZM15.2978 95.3833L16.6848 90.8044L17.0139 90.615L15.641 95.185L15.2978 95.3833ZM15.5295 91.8681C15.5295 91.8221 15.5136 91.7902 15.4942 91.7708C15.3863 91.8132 15.3703 91.8575 15.3562 91.9017C15.3509 91.9708 15.3509 93.0664 15.3509 93.0664C15.3456 93.1248 15.3562 93.2027 15.4429 93.1513C15.519 93.1071 15.5295 93.0186 15.5295 92.9619V91.8681ZM17.281 93.8434C17.2757 94.0169 17.2138 94.1655 17.1112 94.3106C17.0599 94.3868 16.9821 94.4523 16.8848 94.5072C16.6795 94.6257 16.5857 94.5709 16.5309 94.4965C16.4991 94.4523 16.4849 94.3903 16.4849 94.3018V93.2062C16.4849 93.0416 16.5468 92.8876 16.6548 92.7336C16.7061 92.6575 16.7839 92.592 16.8865 92.5336C17.0864 92.4186 17.1749 92.4805 17.2315 92.5549C17.2616 92.6044 17.2775 92.6664 17.2828 92.746V93.8434H17.281ZM16.9732 92.9266C16.9732 92.8805 16.9573 92.8487 16.9378 92.8292C16.8299 92.8717 16.814 92.916 16.7998 92.9602C16.7945 93.0292 16.7945 94.1248 16.7945 94.1248C16.7892 94.185 16.8051 94.2062 16.8299 94.2222C16.9325 94.1885 16.9484 94.1443 16.9643 94.0983C16.9732 94.0204 16.9732 92.9266 16.9732 92.9266Z" fill="black"/>
<path d="M20.1663 62.2957C20.0867 62.2957 20.0088 62.255 19.9681 62.1825C19.9044 62.0709 19.9416 61.9293 20.0513 61.8674L44.8194 47.5625C44.9291 47.4935 45.0707 47.5342 45.1343 47.6457C45.198 47.7572 45.1609 47.8988 45.0512 47.9608L20.2831 62.2656C20.2459 62.2869 20.207 62.2957 20.1663 62.2957Z" fill="white"/>
<path d="M18.2486 81.4202C18.1689 81.4202 18.0911 81.3795 18.0504 81.3052C17.9867 81.1937 18.0239 81.0521 18.1336 80.9902L52.6391 61.0586C52.747 60.9895 52.8903 61.0302 52.954 61.1417C53.0177 61.2532 52.9805 61.3949 52.8708 61.4568L18.3653 81.3884C18.3281 81.4114 18.2892 81.4202 18.2486 81.4202Z" fill="white"/>
<path d="M19.7188 89.0894C19.6392 89.0894 19.5613 89.0469 19.5206 88.9744C19.4569 88.8629 19.4941 88.723 19.6038 88.6593L29.1307 83.1565L30.2735 78.8855C30.2895 78.8271 30.3284 78.7776 30.3815 78.7475L44.5241 70.5791C44.6337 70.5118 44.7753 70.5525 44.839 70.6623C44.9027 70.7738 44.8655 70.9136 44.7558 70.9774L30.6946 79.0997L29.5517 83.3706C29.5358 83.429 29.4969 83.4804 29.4438 83.5087L19.8356 89.0593C19.7984 89.0806 19.7595 89.0894 19.7188 89.0894Z" fill="#CE0A40"/>
<path d="M20.0584 74.5686C19.9788 74.5686 19.9009 74.5279 19.8602 74.4554C19.7965 74.3439 19.8337 74.2023 19.9434 74.1403L41.8261 61.501C41.934 61.432 42.0791 61.4727 42.141 61.5842C42.2047 61.6957 42.1675 61.8373 42.0578 61.8992L20.1752 74.5386C20.138 74.5616 20.0973 74.5686 20.0584 74.5686Z" fill="#CE0A40"/>
<path d="M19.3667 58.3627C19.2871 58.3627 19.2093 58.322 19.1686 58.2495C19.1049 58.138 19.142 57.9964 19.2517 57.9344L30.6858 51.3325L34.1957 38.2206C34.2117 38.1604 34.2506 38.109 34.3037 38.0807L37.2546 36.3762C37.3608 36.309 37.5058 36.3497 37.5695 36.4594C37.6332 36.5709 37.5961 36.7125 37.4864 36.7745L34.6168 38.4312L31.1068 51.5431C31.0909 51.6032 31.052 51.6546 30.9989 51.6829L19.4835 58.3326C19.4464 58.3539 19.4074 58.3627 19.3667 58.3627Z" fill="#CE0A40"/>
<path d="M36.6832 80.5777L36.3312 80.7813C36.1578 80.8821 36.0181 81.1034 36.0181 81.2768V93.5923C36.0181 93.7091 36.1118 93.7498 36.2304 93.6825L36.7859 93.3622C36.9026 93.2949 36.9982 93.1445 36.9982 93.0277V80.7122C36.9964 80.537 36.8566 80.4768 36.6832 80.5777ZM36.9504 84.0769L36.064 84.5902V81.2485C36.064 81.1016 36.1843 80.9122 36.3312 80.8255L36.6832 80.622C36.8318 80.537 36.9504 80.5866 36.9504 80.7352V84.0769Z" fill="black"/>
<path d="M58.3624 68.0552L58.0104 68.2587C57.837 68.3579 57.6973 68.5809 57.6973 68.7543V81.0698C57.6973 81.1866 57.7928 81.2273 57.9096 81.16L58.4651 80.8397C58.5818 80.7724 58.6774 80.622 58.6774 80.5051V68.1897C58.6756 68.0145 58.5358 67.9543 58.3624 68.0552ZM58.6314 72.3226V74.5368L57.745 75.0483V72.8695V68.726C57.745 68.5791 57.8653 68.3898 58.0121 68.303L58.3642 68.0994C58.511 68.0145 58.6314 68.064 58.6314 68.2127V72.3226Z" fill="black"/>
<path d="M40.2975 78.4909L39.9454 78.6944C39.772 78.7953 39.6323 79.0166 39.6323 79.19V91.5054C39.6323 91.6223 39.7278 91.663 39.8446 91.5957L40.4001 91.2753C40.5169 91.2081 40.6124 91.0576 40.6124 90.9408V78.6254C40.6106 78.4484 40.4691 78.39 40.2975 78.4909ZM40.5646 82.7565V86.6522L39.6783 87.1655V83.3034V79.1617C39.6783 79.013 39.7986 78.8254 39.9454 78.7387L40.2975 78.5351C40.4443 78.4502 40.5646 78.4997 40.5646 78.6484V82.7565Z" fill="black"/>
<path d="M47.5229 74.3156L47.1708 74.5192C46.9974 74.6201 46.8577 74.8413 46.8577 75.0148V87.3302C46.8577 87.4471 46.9532 87.4878 47.07 87.4205L47.6255 87.1001C47.7422 87.0329 47.8378 86.8824 47.8378 86.7656V74.4502C47.836 74.275 47.6963 74.2165 47.5229 74.3156ZM47.7918 78.583V84.3637L46.9054 84.877V79.1299V74.9882C46.9054 74.8413 47.0258 74.652 47.1726 74.5652L47.5247 74.3617C47.6733 74.2767 47.7918 74.3263 47.7918 74.475V78.583Z" fill="black"/>
<path d="M51.1374 72.2289L50.7853 72.4324C50.6119 72.5315 50.4722 72.7546 50.4722 72.9262V85.2416C50.4722 85.3584 50.5677 85.3992 50.6845 85.3302L51.24 85.0098C51.3567 84.9425 51.4523 84.7921 51.4523 84.6753V72.3598C51.4505 72.1882 51.309 72.1297 51.1374 72.2289ZM51.4045 76.1723L50.5182 76.6839V72.8997C50.5182 72.751 50.6385 72.5633 50.7853 72.4766L51.1374 72.2731C51.286 72.1881 51.4045 72.2377 51.4045 72.3864V76.1723Z" fill="black"/>
<path d="M54.7499 70.142L54.3979 70.3456C54.2245 70.4465 54.0847 70.6678 54.0847 70.8412V83.1567C54.0847 83.2735 54.1785 83.3142 54.297 83.2469L54.8526 82.9265C54.9693 82.8593 55.0649 82.7088 55.0649 82.592V70.2766C55.0631 70.1014 54.9233 70.0412 54.7499 70.142ZM55.0171 74.4095V75.1369L54.1307 75.6484V74.9564V70.8129C54.1307 70.6642 54.251 70.4766 54.3979 70.3899L54.7499 70.1863C54.8985 70.1014 55.0171 70.1509 55.0171 70.2996V74.4095Z" fill="black"/>
<path d="M43.9101 76.4024L43.558 76.6059C43.3846 76.7068 43.2449 76.928 43.2449 77.1015V89.4169C43.2449 89.5337 43.3386 89.5744 43.4572 89.5072L44.0127 89.1868C44.1294 89.1196 44.225 88.9691 44.225 88.8523V76.5369C44.2232 76.3617 44.0835 76.3033 43.9101 76.4024ZM44.1772 80.6698V83.8964L43.2909 84.4097V81.2185V77.0767C43.2909 76.928 43.4112 76.7404 43.558 76.6537L43.9101 76.4502C44.0587 76.3652 44.1772 76.4148 44.1772 76.5635V80.6698Z" fill="black"/>
<path d="M46.3356 46.9714C46.3356 47.405 45.9853 47.959 45.5501 48.2104C45.1166 48.4599 44.7664 48.3113 44.7664 47.8794C44.7664 47.4475 45.1166 46.8918 45.5501 46.6422C45.9835 46.3891 46.3356 46.5378 46.3356 46.9714Z" fill="white"/>
<path d="M42.7247 61.2479C42.7247 61.6815 42.3727 62.2356 41.9392 62.4869C41.5058 62.7365 41.1555 62.5878 41.1555 62.1541C41.1555 61.7205 41.5076 61.1665 41.9392 60.9152C42.3745 60.6656 42.7247 60.8143 42.7247 61.2479Z" fill="#CE0A40"/>
<path d="M53.5397 60.8054C53.5397 61.239 53.1894 61.7931 52.7559 62.0426C52.3225 62.2922 51.9722 62.1435 51.9722 61.7116C51.9722 61.2797 52.3225 60.724 52.7559 60.4745C53.1876 60.2231 53.5397 60.3718 53.5397 60.8054Z" fill="white"/>
<path d="M45.4246 70.3225C45.4246 70.7562 45.0743 71.3102 44.6409 71.5615C44.2075 71.8111 43.8572 71.6624 43.8572 71.2305C43.8572 70.7987 44.2092 70.2429 44.6409 69.9933C45.0726 69.7402 45.4246 69.8889 45.4246 70.3225Z" fill="#CE0A40"/>
<path d="M38.5248 35.9179C38.5248 36.3516 38.1745 36.9056 37.7411 37.1552C37.3076 37.4047 36.9573 37.2579 36.9573 36.8242C36.9573 36.3906 37.3076 35.8365 37.7411 35.5852C38.1745 35.3356 38.5248 35.4843 38.5248 35.9179Z" fill="#CE0A40"/>
<path d="M58.5003 12.5437L54.4065 14.9102V10.4976L58.5003 8.13123V12.5437Z" fill="#CE0A40"/>
<path d="M58.5003 19.1793L54.4065 21.5458V17.1333L58.5003 14.7686V19.1793Z" fill="#F4BE4A"/>
<path d="M58.5003 25.8167L54.4065 28.1814V23.7689L58.5003 21.4042V25.8167Z" fill="white"/>
<path d="M44.7578 163.722L40.5137 161.271V129.068L44.7578 131.519V163.722Z" fill="#C5C0B6"/>
<path d="M55.5075 157.515L44.7581 163.722V131.519L55.5075 125.312V157.515Z" fill="#D8D3CC"/>
<path d="M44.7578 131.519L40.5137 129.068L51.263 122.86L55.5072 125.312L44.7578 131.519Z" fill="#F0ECE6"/>
<path d="M53.5133 129.751L51.224 131.073C50.8843 131.27 50.6101 131.153 50.6101 130.813V130.264C50.6101 129.924 50.8861 129.491 51.224 129.294L53.5133 127.972C53.8529 127.776 54.129 127.892 54.129 128.232V128.781C54.129 129.121 53.8529 129.554 53.5133 129.751Z" fill="#1F231E"/>
<path d="M52.8305 129.264C52.8128 129.471 52.6234 129.721 52.4076 129.822C52.1918 129.924 52.0308 129.839 52.0467 129.632C52.0644 129.425 52.2537 129.176 52.4695 129.075C52.6854 128.974 52.8482 129.057 52.8305 129.264Z" fill="#96FFFA"/>
<path d="M43.7813 120.179V129.655C43.7795 129.797 43.8715 129.939 44.0591 130.046C44.4288 130.261 45.0285 130.261 45.3983 130.046C45.5805 129.94 45.6725 129.802 45.6761 129.664V120.188L43.7813 120.179Z" fill="#363333"/>
<path d="M45.398 120.57C45.7678 120.356 45.7678 120.011 45.398 119.797C45.0283 119.582 44.4286 119.582 44.0588 119.797C43.6891 120.011 43.6891 120.356 44.0588 120.57C44.4286 120.784 45.0283 120.784 45.398 120.57Z" fill="#423E3E"/>
<path d="M51.4312 115.761V125.238C51.4294 125.379 51.5214 125.521 51.709 125.629C52.0787 125.843 52.6784 125.843 53.0482 125.629C53.2304 125.522 53.3242 125.384 53.326 125.246V115.77L51.4312 115.761Z" fill="#363333"/>
<path d="M52.3777 116.313C52.9004 116.313 53.3242 116.069 53.3242 115.766C53.3242 115.464 52.9004 115.22 52.3777 115.22C51.8549 115.22 51.4312 115.464 51.4312 115.766C51.4312 116.069 51.8549 116.313 52.3777 116.313Z" fill="#423E3E"/>
<path d="M28.3967 109.366L28.0128 109.963C27.6448 110.538 27.7333 111.361 28.3047 112.051L39.1779 125.161C39.9351 126.075 41.2461 126.407 42.1076 125.91L60.6324 115.209C60.8394 115.089 61.0022 114.931 61.1189 114.749L61.5029 114.152L28.3967 109.366Z" fill="#C5C0B6"/>
<path d="M28.8849 108.908C28.0233 109.405 27.9366 110.547 28.6902 111.456L39.5635 124.567C40.3207 125.48 41.6316 125.813 42.4932 125.315L61.018 114.614C61.8795 114.117 61.9662 112.975 61.209 112.062L50.3358 98.9517C49.5822 98.0437 48.2713 97.7092 47.4097 98.2065L28.8849 108.908Z" fill="#F0ECE6"/>
<path d="M60.8251 113.255L48.8197 98.7322C48.7153 98.6065 48.5366 98.5747 48.3951 98.6561L29.1715 109.761C28.9786 109.872 28.9309 110.133 29.0742 110.304L41.0885 124.774C41.1964 124.903 41.3822 124.937 41.529 124.852L60.7349 113.757C60.9136 113.655 60.9561 113.416 60.8251 113.255Z" fill="#33312F"/>
</svg>
