<svg width="136" height="173" viewBox="0 0 136 173" fill="none" xmlns="http://www.w3.org/2000/svg">
<path d="M75.725 64.5404L69.6819 60.9714L91.0443 24.4363L97.0875 28.0053L75.725 64.5404Z" fill="#46A944"/>
<path d="M90.6214 24.3026L84.583 20.7337L108.221 0L114.269 3.56901L90.6214 24.3026Z" fill="#46A944"/>
<path d="M46.5141 67.6608L40.4805 64.0941L69.6816 60.9716L75.7247 64.5406L46.5141 67.6608Z" fill="#46A944"/>
<path d="M6.0408 136.553L0 132.982L40.4805 64.0941L46.5142 67.6607L6.0408 136.553Z" fill="#46A944"/>
<path d="M90.6213 24.3026L114.269 3.56897L107.884 34.1908L101.425 30.469L77.1741 71.9363L47.9443 75.078L10.3672 139.06L6.04077 136.553L46.5141 67.6607L75.7247 64.5405L97.0872 28.0053L90.6213 24.3026Z" fill="#67B74A"/>
<path d="M115.633 130.745L97.5103 120.031L97.8278 52.3365L115.953 63.0507L115.633 130.745Z" fill="#424242"/>
<path d="M115.953 63.0507L97.8281 52.3365L117.526 41.1592L135.651 51.8757L115.953 63.0507Z" fill="#686868"/>
<path d="M135.651 51.8759L135.333 119.56L115.633 130.745L115.953 63.0508L135.651 51.8759Z" fill="#8D8D8D"/>
<path d="M90.6287 144.925L72.5088 134.211L72.6974 92.9037L90.8198 103.611L90.6287 144.925Z" fill="#9BB5CD"/>
<path d="M90.8199 103.611L72.6975 92.9038L92.41 81.7217L110.525 92.4358L90.8199 103.611Z" fill="#D6E7F8"/>
<path d="M110.525 92.4359L110.341 133.743L90.6287 144.925L90.8197 103.611L110.525 92.4359Z" fill="#F8F9FC"/>
<path d="M65.6301 159.103L47.5054 148.399L47.7489 96.0717L65.8688 106.779L65.6301 159.103Z" fill="#19AA39"/>
<path d="M65.869 106.779L47.749 96.0718L67.4663 84.8777L85.5863 95.5943L65.869 106.779Z" fill="#008B48"/>
<path d="M85.586 95.5944L85.3473 147.922L65.6299 159.104L65.8687 106.779L85.586 95.5944Z" fill="#B3CE0A"/>
<path d="M40.6384 173L22.5183 162.288L22.6544 133.431L40.7697 144.145L40.6384 173Z" fill="#E68A0A"/>
<path d="M40.7703 144.145L22.655 133.431L42.3533 122.256L60.4757 132.97L40.7703 144.145Z" fill="#F5A829"/>
<path d="M60.4748 132.97L60.3435 161.818L40.6382 173L40.7695 144.145L60.4748 132.97Z" fill="#FFCA00"/>
</svg>
