<svg width="174" height="50" viewBox="0 0 174 50" fill="none" xmlns="http://www.w3.org/2000/svg">
<g clip-path="url(#clip0_34_1434)">
<path d="M50 25C50 29.9445 48.5338 34.778 45.7867 38.8893C43.0397 43.0005 39.1352 46.2048 34.5671 48.097C29.9989 49.9892 24.9723 50.4843 20.1227 49.5196C15.2732 48.555 10.8186 46.174 7.32233 42.6777C3.82602 39.1814 1.445 34.7268 0.480368 29.8773C-0.484263 25.0277 0.0108209 20.0011 1.90301 15.4329C3.7952 10.8648 6.99952 6.96029 11.1107 4.21326C15.222 1.46622 20.0555 -5.8963e-08 25 0V25H50Z" fill="#A1B748"/>
<path d="M44 25C44 20.6042 42.4758 16.3445 39.6872 12.9465C36.8986 9.54857 33.018 7.22265 28.7067 6.36508C24.3954 5.50751 19.9202 6.17135 16.0435 8.2435C12.1668 10.3156 9.12847 13.6679 7.44629 17.729C5.76411 21.7902 5.54211 26.3089 6.81813 30.5154C8.09415 34.7219 10.7892 38.3558 14.4442 40.7979C18.0991 43.2401 22.4877 44.3394 26.8623 43.9085C31.2369 43.4777 35.3268 41.5433 38.435 38.435L25 25H44Z" fill="#F2F2F2"/>
<path d="M50 25C50 29.9445 48.5338 34.778 45.7867 38.8893C43.0397 43.0005 39.1352 46.2048 34.5671 48.097C29.9989 49.9892 24.9723 50.4843 20.1227 49.5196C15.2732 48.555 10.8186 46.174 7.32233 42.6777C3.82602 39.1814 1.445 34.7268 0.480368 29.8773C-0.484263 25.0277 0.0108209 20.0011 1.90301 15.4329C3.7952 10.8648 6.99952 6.96029 11.1107 4.21326C15.222 1.46622 20.0555 -5.8963e-08 25 0V25H50Z" fill="url(#paint0_linear_34_1434)"/>
<path d="M61.676 38L72.908 12.8H78.668L89.936 38H83.816L74.6 15.752H76.904L67.652 38H61.676ZM67.292 32.6L68.84 28.172H81.8L83.384 32.6H67.292ZM104.367 38.432C102.375 38.432 100.539 38.12 98.8589 37.496C97.2029 36.848 95.7509 35.936 94.5029 34.76C93.2789 33.584 92.3189 32.204 91.6229 30.62C90.9509 29.036 90.6149 27.296 90.6149 25.4C90.6149 23.504 90.9509 21.764 91.6229 20.18C92.3189 18.596 93.2909 17.216 94.5389 16.04C95.7869 14.864 97.2509 13.964 98.9309 13.34C100.611 12.692 102.459 12.368 104.475 12.368C106.707 12.368 108.711 12.74 110.487 13.484C112.287 14.228 113.799 15.308 115.023 16.724L111.279 20.18C110.367 19.22 109.371 18.512 108.291 18.056C107.211 17.576 106.035 17.336 104.763 17.336C103.539 17.336 102.423 17.528 101.415 17.912C100.407 18.296 99.5309 18.848 98.7869 19.568C98.0669 20.288 97.5029 21.14 97.0949 22.124C96.7109 23.108 96.5189 24.2 96.5189 25.4C96.5189 26.576 96.7109 27.656 97.0949 28.64C97.5029 29.624 98.0669 30.488 98.7869 31.232C99.5309 31.952 100.395 32.504 101.379 32.888C102.387 33.272 103.491 33.464 104.691 33.464C105.843 33.464 106.959 33.284 108.039 32.924C109.143 32.54 110.211 31.904 111.243 31.016L114.555 35.228C113.187 36.26 111.591 37.052 109.767 37.604C107.967 38.156 106.167 38.432 104.367 38.432ZM109.227 34.472V25.004H114.555V35.228L109.227 34.472ZM119.972 38V12.8H130.88C133.136 12.8 135.08 13.172 136.712 13.916C138.344 14.636 139.604 15.68 140.492 17.048C141.38 18.416 141.824 20.048 141.824 21.944C141.824 23.816 141.38 25.436 140.492 26.804C139.604 28.148 138.344 29.18 136.712 29.9C135.08 30.62 133.136 30.98 130.88 30.98H123.212L125.804 28.424V38H119.972ZM135.992 38L129.692 28.856H135.92L142.292 38H135.992ZM125.804 29.072L123.212 26.336H130.556C132.356 26.336 133.7 25.952 134.588 25.184C135.476 24.392 135.92 23.312 135.92 21.944C135.92 20.552 135.476 19.472 134.588 18.704C133.7 17.936 132.356 17.552 130.556 17.552H123.212L125.804 14.78V29.072ZM158.685 38.432C156.693 38.432 154.845 38.108 153.141 37.46C151.461 36.812 149.997 35.9 148.749 34.724C147.525 33.548 146.565 32.168 145.869 30.584C145.197 29 144.861 27.272 144.861 25.4C144.861 23.528 145.197 21.8 145.869 20.216C146.565 18.632 147.537 17.252 148.785 16.076C150.033 14.9 151.497 13.988 153.177 13.34C154.857 12.692 156.681 12.368 158.649 12.368C160.641 12.368 162.465 12.692 164.121 13.34C165.801 13.988 167.253 14.9 168.477 16.076C169.725 17.252 170.697 18.632 171.393 20.216C172.089 21.776 172.437 23.504 172.437 25.4C172.437 27.272 172.089 29.012 171.393 30.62C170.697 32.204 169.725 33.584 168.477 34.76C167.253 35.912 165.801 36.812 164.121 37.46C162.465 38.108 160.653 38.432 158.685 38.432ZM158.649 33.464C159.777 33.464 160.809 33.272 161.745 32.888C162.705 32.504 163.545 31.952 164.265 31.232C164.985 30.512 165.537 29.66 165.921 28.676C166.329 27.692 166.533 26.6 166.533 25.4C166.533 24.2 166.329 23.108 165.921 22.124C165.537 21.14 164.985 20.288 164.265 19.568C163.569 18.848 162.741 18.296 161.781 17.912C160.821 17.528 159.777 17.336 158.649 17.336C157.521 17.336 156.477 17.528 155.517 17.912C154.581 18.296 153.753 18.848 153.033 19.568C152.313 20.288 151.749 21.14 151.341 22.124C150.957 23.108 150.765 24.2 150.765 25.4C150.765 26.576 150.957 27.668 151.341 28.676C151.749 29.66 152.301 30.512 152.997 31.232C153.717 31.952 154.557 32.504 155.517 32.888C156.477 33.272 157.521 33.464 158.649 33.464Z" fill="#F2F2F2"/>
</g>
<defs>
<linearGradient id="paint0_linear_34_1434" x1="25" y1="0" x2="25" y2="50" gradientUnits="userSpaceOnUse">
<stop stop-color="#48B760"/>
<stop offset="1" stop-color="#6BB748" stop-opacity="0.63"/>
</linearGradient>
<clipPath id="clip0_34_1434">
<rect width="174" height="50" fill="white"/>
</clipPath>
</defs>
</svg>
